<svg width="28" height="28" viewBox="0 0 28 28" fill="none" xmlns="http://www.w3.org/2000/svg" style="background-color: #f5f5f5">
<path d="M5.25 3.5V7" stroke="white" stroke-width="1.8" stroke-linecap="round"/>
<path d="M22.75 3.5V7" stroke="white" stroke-width="1.8" stroke-linecap="round"/>
<path d="M2.625 7H25.375" stroke="white" stroke-width="2" stroke-linecap="round"/>
<path d="M2.625 10.5H25.375" stroke="white" stroke-width="1.2" stroke-linecap="round"/>
<path d="M3.5 6.125V12.25" stroke="white" stroke-width="2.2" stroke-linecap="round"/>
<path d="M14 6.125V12.25" stroke="white" stroke-width="2.2" stroke-linecap="round"/>
<path d="M24.5 6.125V12.25" stroke="white" stroke-width="2.2" stroke-linecap="round"/>
<path d="M5.6875 7.21875V10.5" stroke="white" stroke-width="0.9"/>
<path d="M7.4375 7.21875V10.5" stroke="white" stroke-width="0.9"/>
<path d="M9.1875 7.21875V10.5" stroke="white" stroke-width="0.9"/>
<path d="M11.1562 7.21875V10.5" stroke="white" stroke-width="0.9"/>
<path d="M16.1875 7.21875V10.5" stroke="white" stroke-width="0.9"/>
<path d="M17.9375 7.21875V10.5" stroke="white" stroke-width="0.9"/>
<path d="M19.6875 7.21875V10.5" stroke="white" stroke-width="0.9"/>
<path d="M21.6562 7.21875V10.5" stroke="white" stroke-width="0.9"/>
<path d="M26.0312 11.375H1.96875C1.84794 11.375 1.75 11.4729 1.75 11.5938V12.9062C1.75 13.0271 1.84794 13.125 1.96875 13.125H26.0312C26.1521 13.125 26.25 13.0271 26.25 12.9062V11.5938C26.25 11.4729 26.1521 11.375 26.0312 11.375Z" stroke="white" stroke-width="1.8"/>
<path d="M2.1875 12.25H25.8125" stroke="white" stroke-width="0.6"/>
<path d="M3.5 13.125V22.75" stroke="white" stroke-width="2" stroke-linecap="round"/>
<path d="M14 13.125V22.75" stroke="white" stroke-width="2" stroke-linecap="round"/>
<path d="M24.5 13.125V22.75" stroke="white" stroke-width="2" stroke-linecap="round"/>
<path d="M3.5 14.875H14" stroke="white" stroke-linecap="round"/>
<path d="M14 14.875H24.5" stroke="white" stroke-linecap="round"/>
<path d="M14.875 13.125V15.75H17.5V18.375H20.125V21H22.75V22.75" stroke="white" stroke-width="1.5" stroke-linecap="round" stroke-linejoin="round"/>
</svg>
