<svg width="32" height="32" viewBox="0 0 32 32" fill="none" xmlns="http://www.w3.org/2000/svg">
<path d="M26.6667 13.3332C26.6667 19.9905 19.2813 26.9238 16.8013 29.0652C16.5703 29.2389 16.2891 29.3328 16 29.3328C15.7109 29.3328 15.4297 29.2389 15.1987 29.0652C12.7187 26.9238 5.33333 19.9905 5.33333 13.3332C5.33333 10.5042 6.45713 7.79109 8.45752 5.7907C10.4579 3.79031 13.171 2.6665 16 2.6665C18.829 2.6665 21.5421 3.79031 23.5425 5.7907C25.5429 7.79109 26.6667 10.5042 26.6667 13.3332Z" stroke="white" stroke-width="2.66667" stroke-linecap="round" stroke-linejoin="round"/>
<path d="M16 17.3335C18.2091 17.3335 20 15.5426 20 13.3335C20 11.1244 18.2091 9.3335 16 9.3335C13.7909 9.3335 12 11.1244 12 13.3335C12 15.5426 13.7909 17.3335 16 17.3335Z" stroke="white" stroke-width="2.66667" stroke-linecap="round" stroke-linejoin="round"/>
</svg>
