<svg xmlns="http://www.w3.org/2000/svg" width="1280" viewBox="0 0 960 600" height="800" version="1.0"><defs><clipPath id="a"><path d="M425.14 290.93h143.317v143.316H425.141Zm0 0"/></clipPath><clipPath id="b"><path d="M496.8 290.93c-39.577 0-71.66 32.082-71.66 71.656 0 39.578 32.083 71.66 71.66 71.66 39.575 0 71.657-32.082 71.657-71.66 0-39.574-32.082-71.656-71.656-71.656Zm0 0"/></clipPath><clipPath id="d"><path d="M.14.93h143.317v143.316H.141Zm0 0"/></clipPath><clipPath id="e"><path d="M71.8.93C32.224.93.14 33.012.14 72.586c0 39.578 32.083 71.66 71.66 71.66 39.575 0 71.657-32.082 71.657-71.66C143.457 33.012 111.375.93 71.801.93Zm0 0"/></clipPath><clipPath id="c"><path d="M0 0h144v145H0z"/></clipPath><clipPath id="f"><path d="M426 291.715h141.672V433.46H426Zm0 0"/></clipPath><clipPath id="g"><path d="M496.8 291.8c-39.097 0-70.788 31.692-70.788 70.786 0 39.098 31.691 70.789 70.789 70.789 39.094 0 70.789-31.691 70.789-70.79 0-39.093-31.695-70.784-70.79-70.784Zm0 0"/></clipPath><clipPath id="i"><path d="M0 .715h141.602V142.44H0Zm0 0"/></clipPath><clipPath id="j"><path d="M70.8.8C31.704.8.013 32.493.013 71.587c0 39.098 31.691 70.789 70.789 70.789 39.094 0 70.789-31.691 70.789-70.79C141.59 32.493 109.895.802 70.8.802Zm0 0"/></clipPath><clipPath id="h"><path d="M0 0h142v143H0z"/></clipPath><clipPath id="k"><path d="M262.379 140.004h398.933v74.43H262.38Zm0 0"/></clipPath><clipPath id="l"><path d="M264.074 144.71c15.903 1.278 48.528.08 55.95.75 2.25.153 1.953.528 4.351.75 10.875.977 73.352 2.028 90.676.376 7.05-.672 10.8-2.399 14.699-3 2.7-.297 3.676-.297 6.75-.45 6.75-.222 28.05-1.425 32.852-.148 1.5.375 1.648 1.2 2.773 1.575 1.426.523 3.227.523 5.477.75 3.523.226 9.148.375 13.648.226 4.426-.078 8.7-.3 12.977-.828 4.421-.598 8.625-2.098 13.347-2.547 5.102-.453 10.5.223 16.2 0 6.226-.226 11.925-1.351 19.652-1.652 11.097-.45 31.8-.75 40.8 0 4.5.3 7.2.902 9.973 1.574 2.102.453 3.903.75 5.324 1.726 1.426 1.051 2.852 3 3.301 4.2.227.675.227 1.8.074 1.875-.148.074-1.125-1.051-1.046-1.051 0-.074 1.199.601 1.574 1.277.676 1.051-.153 3.524 1.05 4.575 1.95 1.8 9.45.148 12.672 1.8 2.704 1.348 4.727 4.125 6 6.223 1.051 1.652 1.5 3.527 1.801 5.027.227 1.274.301 3.301 0 3.45-.222.074-1.125-1.2-1.125-1.2-.074.075 2.028 1.649 2.7 3.375 1.351 3.598-.598 15.149.675 19.274.676 2.175 1.2 3.226 2.852 4.574 2.699 2.101 10.199 2.703 13.574 4.578 2.324 1.274 4.05 2.848 5.324 4.274.977 1.125 1.801 2.175 2.102 3.375.3 1.125.375 2.699-.074 3.523-.301.601-1.204 1.203-1.727 1.203-.523 0-1.2-.453-1.426-.902-.222-.375-.3-1.2-.074-1.649.148-.375.824-.902 1.273-.976.528-.075 1.278.152 1.579.527.375.524.296 2.098-.153 2.547-.375.375-1.648.375-2.097.152-.454-.226-.75-.976-.829-1.5 0-.527.829-1.125.75-1.8-.148-.977-2.25-3.227-2.097-3.301 0-.075 1.125 1.125 1.125 1.125 0 .074-5.176-4.426-5.176-4.348-.074 0 1.125.973 1.05 1.125-.152.297-3.823-.976-5.925-1.726-2.625-.899-6.148-1.875-8.324-3.45-1.875-1.351-3.45-3.375-4.426-4.949-.75-1.203-1.125-1.875-1.426-3.453-.676-3.223-.523-12.899 0-15.375.153-.824.676-.899.676-1.574-.074-1.125-2.023-2.926-2.324-4.274-.227-1.125.523-2.324.3-3.375-.3-1.125-.976-2.101-1.8-3.226-1.051-1.426-2.324-3.375-4.352-4.348-2.773-1.426-9.222-.527-11.699-1.652-1.352-.676-2.023-1.348-2.7-2.473-.902-1.5-.823-4.578-1.573-6.152-.602-1.2-1.352-2.25-2.176-2.848-.676-.453-1.2-.601-2.176-.75-1.574-.375-4.648.074-6.523-.3-1.426-.302-1.727-1.052-3.676-1.427-6.45-1.199-31.727-.523-42.977 0-7.426.301-12.375 1.352-18.3 1.575-5.7.3-11.473-.45-16.649 0-4.574.449-8.55 1.875-12.898 2.402-4.278.524-8.551.598-12.903.75-4.574.149-10.273.375-13.949.149-2.477-.227-4.648-.45-6.074-1.051-.977-.375-.903-1.051-2.176-1.426-4.5-1.348-24.898-.899-34.8-.149-7.348.602-10.5 2.399-19.274 3.075-18.153 1.5-69.903.976-84.602.375-5.097-.223-5.625-.676-10.426-.825-10.347-.449-43.796.977-49.347-.148-1.125-.3-1.125-.75-2.028-.976-1.347-.227-4.347.601-5.324 0-.523-.301-.824-1.051-.75-1.5.074-.524 1.5-1.352 1.5-1.352"/></clipPath><clipPath id="n"><path d="M.379.004h398.934V74.32H.378Zm0 0"/></clipPath><clipPath id="o"><path d="M2.074 4.71c15.903 1.278 48.528.08 55.95.75 2.25.153 1.953.528 4.351.75 10.875.978 73.352 2.028 90.676.376 7.05-.672 10.8-2.399 14.699-3 2.7-.297 3.676-.297 6.75-.45 6.75-.222 28.05-1.425 32.852-.148 1.5.375 1.648 1.2 2.773 1.575 1.426.523 3.227.523 5.477.75 3.523.226 9.148.375 13.648.226 4.426-.078 8.7-.3 12.977-.828 4.421-.598 8.625-2.098 13.347-2.547 5.102-.453 10.5.223 16.2 0C278 1.937 283.698.812 291.425.512c11.097-.45 31.8-.75 40.8 0 4.5.3 7.2.902 9.973 1.574 2.102.453 3.903.75 5.324 1.727 1.426 1.05 2.852 3 3.301 4.199.227.675.227 1.8.074 1.875-.148.074-1.125-1.051-1.046-1.051 0-.074 1.199.601 1.574 1.277.676 1.051-.153 3.524 1.05 4.575 1.95 1.8 9.45.148 12.672 1.8 2.704 1.348 4.727 4.125 6 6.223 1.051 1.652 1.5 3.527 1.801 5.027.227 1.274.301 3.301 0 3.45-.222.074-1.125-1.2-1.125-1.2-.074.075 2.028 1.649 2.7 3.375 1.351 3.598-.598 15.149.675 19.274.676 2.175 1.2 3.226 2.852 4.574 2.699 2.102 10.199 2.703 13.574 4.578 2.324 1.273 4.05 2.848 5.324 4.273.977 1.126 1.801 2.176 2.102 3.376.3 1.124.375 2.699-.074 3.523-.301.602-1.204 1.203-1.727 1.203-.523 0-1.2-.453-1.426-.902-.222-.375-.3-1.2-.074-1.649.148-.375.824-.902 1.273-.976.528-.075 1.278.152 1.579.527.375.523.296 2.098-.153 2.547-.375.375-1.648.375-2.097.152-.454-.226-.75-.976-.829-1.5 0-.527.829-1.125.75-1.8-.148-.977-2.25-3.227-2.097-3.301 0-.075 1.125 1.125 1.125 1.125 0 .074-5.176-4.426-5.176-4.348-.074 0 1.125.973 1.05 1.125-.152.297-3.823-.977-5.925-1.727-2.625-.898-6.148-1.874-8.324-3.449-1.875-1.351-3.45-3.375-4.426-4.949-.75-1.203-1.125-1.875-1.426-3.453-.676-3.223-.523-12.898 0-15.375.153-.824.676-.898.676-1.574-.074-1.125-2.023-2.926-2.324-4.274-.227-1.125.523-2.324.3-3.375-.3-1.125-.976-2.101-1.8-3.226-1.051-1.426-2.324-3.375-4.352-4.348-2.773-1.426-9.222-.527-11.699-1.652-1.352-.676-2.023-1.348-2.7-2.473-.902-1.5-.823-4.578-1.573-6.152-.602-1.2-1.352-2.25-2.176-2.848-.676-.453-1.2-.601-2.176-.75-1.574-.375-4.648.074-6.523-.3-1.426-.301-1.727-1.051-3.676-1.426-6.45-1.2-31.727-.524-42.977 0-7.426.3-12.375 1.351-18.3 1.574-5.7.3-11.473-.45-16.649 0-4.574.449-8.55 1.875-12.898 2.402-4.278.524-8.551.598-12.903.75-4.574.149-10.273.375-13.949.149-2.477-.227-4.648-.45-6.074-1.051-.977-.375-.903-1.051-2.176-1.426-4.5-1.348-24.898-.899-34.8-.149-7.348.602-10.5 2.399-19.274 3.075-18.153 1.5-69.903.976-84.602.375-5.097-.223-5.625-.676-10.426-.825-10.347-.449-43.796.977-49.347-.148-1.125-.3-1.125-.75-2.028-.976-1.347-.227-4.347.601-5.324 0-.523-.301-.824-1.051-.75-1.5.074-.524 1.5-1.352 1.5-1.352"/></clipPath><clipPath id="m"><path d="M0 0h400v75H0z"/></clipPath><clipPath id="p"><path d="M574 209.094h87.215V382.52H574Zm0 0"/></clipPath><clipPath id="q"><path d="M661.125 211.574c-12.148 15.977-14.102 20.852-15.676 22.801-.824.898-1.347.75-2.097 1.648-1.653 1.801-3.602 7.125-5.926 9.454-2.028 2.023-5.625 2.171-6.75 4.273-1.352 2.324-.602 6.602-.153 9.602.454 2.625 2.852 4.648 2.477 7.273-.523 3.676-7.574 9.45-8.926 12.3-.676 1.348-.898 2.024-.898 3.302 0 1.722.824 4.949 1.574 6.222.45.676 1.05.75 1.426 1.278.523.597 1.199 2.171 1.125 2.25-.074 0-1.125-1.125-1.125-1.125s2.324 1.5 3.3 2.773c1.2 1.574 1.797 4.273 3.075 6.375 1.273 2.25 3.676 4.727 4.5 6.602.523 1.125.222 2.097.75 2.921.597.903 1.722 1.125 2.847 2.176 1.875 1.95 4.579 6.75 6.75 9 1.653 1.801 3.454 2.625 4.954 4.125 1.421 1.5 3.148 3.227 4.046 4.875.676 1.278.903 2.551 1.125 3.903.227 1.574.301 3.671 0 4.949-.222.824-.449 1.347-.972 2.023-.602.824-1.727 1.653-3 2.25-1.801.824-4.727.301-7.125 1.278-2.926 1.273-6.301 3.671-9.153 6.375-3.375 3.148-6.523 8.625-9.222 11.847-2.028 2.324-4.051 4.653-5.551 5.7-.75.601-1.125.675-2.023 1.05-1.352.676-4.051 1.95-5.329 2.324-.671.227-1.5.454-1.648.301-.148-.222.75-1.426.602-1.5-.079-.074-1.278 2.028-2.25 2.7-1.051.675-2.477 1.05-3.829 1.203-1.574.296-3.296.523-5.023 0-2.102-.602-4.648-3.454-6.523-4.051-1.352-.375-2.102-.528-3.602-.153-3 .75-9.75 4.875-12.523 7.352-1.875 1.574-2.704 4.273-3.829 4.8-.523.223-1.125.223-1.574 0-.375-.226-.898-.823-.898-1.277 0-.523.597-1.5 1.05-1.796.45-.153 1.2-.079 1.575.148.375.3.75.977.75 1.426 0 .449-.375 1.125-.75 1.426-.375.222-1.125.375-1.574.148-.454-.227-1.125-1.05-1.051-1.727.148-1.347 2.55-3.597 4.722-5.398 3.227-2.7 10.426-7.352 13.801-8.324 1.727-.45 2.625-.45 4.125 0 1.95.523 4.426 3.375 6.528 3.972 1.648.454 2.847.375 4.796 0 3.153-.671 8.926-3 12.227-5.25 2.773-1.875 4.5-4.046 6.602-6.671 2.472-3 5.171-9.079 7.125-10.426.824-.528 1.347-.074 2.324-.45 2.023-.976 5.773-4.953 8.847-6.527 2.852-1.426 7.579-.972 8.852-2.773 1.05-1.574.676-4.2-.227-6.45-1.347-3.3-7.347-7.578-9.671-10.578-1.579-1.949-2.028-3.523-3.454-5.171-1.5-1.727-4.5-3.079-5.472-4.727-.75-1.273-.227-2.477-.824-3.898-1.051-2.25-4.352-5.102-5.704-7.579-1.125-1.949-2.398-5.699-2.25-5.773.153-.074 1.125 1.352 1.125 1.352-.074 0-5.097-4.352-6.375-6.903-1.125-2.25-1.5-5.324-1.421-7.347.074-1.579.296-2.477 1.125-4.051 1.574-2.926 9.449-8.852 9.523-11.324 0-1.204-1.5-1.727-2.023-2.778-.602-1.125-.977-2.324-1.278-3.972-.375-2.551-.449-7.875 0-9.903.227-.972.301-1.273.977-2.023 1.273-1.574 5.398-2.778 8.097-5.551 4.125-4.2 10.125-16.574 12.454-19.125.75-.75 1.648-1.273 1.648-1.273.074 0-.977 1.125-1.05 1.046-.075-.074.527-1.421 1.124-2.25.903-1.273 2.926-2.546 4.278-4.273 1.574-1.8 2.847-5.7 4.199-6.45.676-.374 1.648-.374 2.023 0 .375.302.301 2.024.301 2.024"/></clipPath><clipPath id="s"><path d="M0 .094h87.2V173.52H0Zm0 0"/></clipPath><clipPath id="t"><path d="M87.125 2.574C74.977 18.551 73.023 23.426 71.449 25.375c-.824.898-1.347.75-2.097 1.648-1.653 1.801-3.602 7.125-5.926 9.454-2.028 2.023-5.625 2.171-6.75 4.273-1.352 2.324-.602 6.602-.153 9.602.454 2.625 2.852 4.648 2.477 7.273-.523 3.676-7.574 9.45-8.926 12.3-.676 1.348-.898 2.024-.898 3.302 0 1.722.824 4.949 1.574 6.222.45.676 1.05.75 1.426 1.278.523.597 1.199 2.171 1.125 2.25-.074 0-1.125-1.125-1.125-1.125s2.324 1.5 3.3 2.773c1.2 1.574 1.797 4.273 3.075 6.375 1.273 2.25 3.676 4.727 4.5 6.602.523 1.125.222 2.097.75 2.921.597.903 1.722 1.125 2.847 2.176 1.875 1.95 4.579 6.75 6.75 9 1.653 1.801 3.454 2.625 4.954 4.125 1.421 1.5 3.148 3.227 4.046 4.875.676 1.278.903 2.551 1.125 3.903.227 1.574.301 3.671 0 4.949-.222.824-.449 1.347-.972 2.023-.602.824-1.727 1.653-3 2.25-1.801.824-4.727.301-7.125 1.278-2.926 1.273-6.301 3.671-9.153 6.375-3.375 3.148-6.523 8.625-9.222 11.847-2.028 2.324-4.051 4.653-5.551 5.7-.75.601-1.125.675-2.023 1.05-1.352.676-4.051 1.95-5.329 2.324-.671.227-1.5.454-1.648.301-.148-.222.75-1.426.602-1.5-.079-.074-1.278 2.028-2.25 2.7-1.051.675-2.477 1.05-3.829 1.203-1.574.296-3.296.523-5.023 0-2.102-.602-4.648-3.454-6.523-4.051-1.352-.375-2.102-.528-3.602-.153-3 .75-9.75 4.875-12.523 7.352-1.875 1.574-2.704 4.273-3.829 4.8-.523.223-1.125.223-1.574 0-.375-.226-.898-.823-.898-1.277 0-.523.597-1.5 1.05-1.796.45-.153 1.2-.079 1.575.148.375.3.75.977.75 1.426 0 .449-.375 1.125-.75 1.426-.375.222-1.125.375-1.574.148-.454-.227-1.125-1.05-1.051-1.727.148-1.347 2.55-3.597 4.722-5.398 3.227-2.7 10.426-7.352 13.801-8.324 1.727-.45 2.625-.45 4.125 0 1.95.523 4.426 3.375 6.528 3.972 1.648.454 2.847.375 4.796 0 3.153-.671 8.926-3 12.227-5.25 2.773-1.875 4.5-4.046 6.602-6.671 2.472-3 5.171-9.079 7.125-10.426.824-.528 1.347-.074 2.324-.45 2.023-.976 5.773-4.953 8.847-6.527 2.852-1.426 7.579-.972 8.852-2.773 1.05-1.574.676-4.2-.227-6.45-1.347-3.3-7.347-7.578-9.671-10.578-1.579-1.949-2.028-3.523-3.454-5.171-1.5-1.727-4.5-3.079-5.472-4.727-.75-1.273-.227-2.477-.824-3.898-1.051-2.25-4.352-5.102-5.704-7.579-1.125-1.949-2.398-5.699-2.25-5.773.153-.074 1.125 1.352 1.125 1.352-.074 0-5.097-4.352-6.375-6.903-1.125-2.25-1.5-5.324-1.421-7.347.074-1.579.296-2.477 1.125-4.051 1.574-2.926 9.449-8.852 9.523-11.324 0-1.204-1.5-1.727-2.023-2.778-.602-1.125-.977-2.324-1.278-3.972-.375-2.551-.449-7.875 0-9.903.227-.972.301-1.273.977-2.023 1.273-1.574 5.398-2.778 8.097-5.551 4.125-4.2 10.125-16.574 12.454-19.125.75-.75 1.648-1.273 1.648-1.273.074 0-.977 1.125-1.05 1.046-.075-.074.527-1.421 1.124-2.25C77.227 10 79.25 8.727 80.602 7 82.176 5.2 83.449 1.3 84.8.55c.676-.374 1.648-.374 2.023 0 .375.302.301 2.024.301 2.024"/></clipPath><clipPath id="r"><path d="M0 0h88v174H0z"/></clipPath><clipPath id="u"><path d="M573.55 380h65.2v133.473h-65.2Zm0 0"/></clipPath><clipPath id="v"><path d="M577.648 381.523c.528 30.528 1.352 31.653 1.727 36.375.977 11.852-.148 45.153.523 61.954.454 11.625 3.676 28.347 2.102 29.25-.375.222-1.574-.676-1.5-.977.375-1.352 40.125 1.125 49.2.523 3.527-.296 5.777-1.648 7.277-1.125.898.301 1.796 1.278 1.722 1.801 0 .602-1.347 1.653-1.875 1.653-.523.074-1.199-.454-1.347-.903-.227-.523-.079-1.648.296-2.097.301-.375 1.125-.528 1.579-.454.523.227 1.347 1.051 1.347 1.653.074.523-.523 1.347-1.199 1.722-.977.528-3.523-.148-4.727.153-.824.222-.824.75-1.949.972-5.472 1.352-45.523 2.102-50.55-.671-1.126-.676-1.047-1.051-1.5-2.403-1.422-4.199-1.723-17.55-2.172-29.023-.75-16.801.375-50.028-.602-61.875-.45-4.801-1.352-5.926-1.648-10.125-.528-6.75-1.352-23.7.222-26.778.45-.824 1.2-1.199 1.727-1.125.449.079 1.347 1.5 1.347 1.5"/></clipPath><clipPath id="x"><path d="M.55 0h65.2v133.473H.55Zm0 0"/></clipPath><clipPath id="y"><path d="M4.648 1.523C5.176 32.051 6 33.176 6.375 37.898c.977 11.852-.148 45.153.523 61.954.454 11.625 3.676 28.347 2.102 29.25-.375.222-1.574-.676-1.5-.977.375-1.352 40.125 1.125 49.2.523 3.527-.296 5.777-1.648 7.277-1.125.898.301 1.796 1.278 1.722 1.801 0 .602-1.347 1.653-1.875 1.653-.523.074-1.199-.454-1.347-.903-.227-.523-.079-1.648.296-2.097.301-.375 1.125-.528 1.579-.454.523.227 1.347 1.051 1.347 1.653.074.523-.523 1.347-1.199 1.722-.977.528-3.523-.148-4.727.153-.824.222-.824.75-1.949.972-5.472 1.352-45.523 2.102-50.55-.671-1.126-.676-1.047-1.051-1.5-2.403-1.422-4.199-1.723-17.55-2.172-29.023-.75-16.801.375-50.028-.602-61.875-.45-4.801-1.352-5.926-1.648-10.125-.528-6.75-1.352-23.7.222-26.778.45-.824 1.2-1.199 1.727-1.125.449.079 1.347 1.5 1.347 1.5"/></clipPath><clipPath id="w"><path d="M0 0h66v134H0z"/></clipPath><clipPath id="z"><path d="M280.648 377h342.305v191H280.648Zm0 0"/></clipPath><clipPath id="A"><path d="M621.375 556.05c-7.574.598-10.125 3.075-13.727 3.75-5.171 1.052-15.824-1.726-19.949-.3-2.25.824-2.398 2.7-4.574 3.75-3.523 1.727-12.602 3.227-15.898 3.676-1.5.148-2.403.449-3.301.148-.75-.222-1.426-.824-1.801-1.5-.45-.824.523-2.625-.227-3.222-1.046-.977-4.796-.153-7.722.375-3.903.75-10.125 3.671-13.278 4.273-1.648.375-2.324.75-3.972.3-3.676-.902-13.051-7.124-16.278-10.277-1.796-1.722-2.625-3-3.449-4.796-.824-1.875-.75-4.5-1.5-6.153-.523-1.273-1.347-2.847-2.023-3-.45-.148-.676.676-1.352.824-1.648.301-5.847-.523-8.55-1.5-2.626-1.046-5.098-4.046-7.422-4.421-1.954-.301-3.829 1.273-5.704 1.421-1.796.079-3.972.227-5.398-.597-1.352-.676-2.023-2.176-2.926-3.602a31.599 31.599 0 0 1-3.148-6.148c-.977-2.477-1.5-6.301-2.324-7.95-.454-.828-.75-1.425-1.426-1.726-.824-.375-2.25-.148-3.227.227-1.05.296-1.574 1.273-3 1.949-2.472 1.347-9.3 4.875-11.398 4.574-.977-.148-1.278-.75-1.875-1.5a12.442 12.442 0 0 1-2.176-4.8c-.75-3.598-.45-11.177.227-15.302.523-2.921 1.125-5.324 2.546-7.273 1.278-1.875 3.602-3.3 5.403-4.5 1.574-1.05 3.523-1.5 4.722-2.55a8.83 8.83 0 0 0 2.477-3.15c.523-1.05.074-2.25.676-3.448.972-1.875 4.574-3.454 5.847-6.227 1.727-3.75 2.551-12.227 1.801-15.148-.375-1.352-1.273-2.704-2.023-2.704-.977 0-2.477 3.676-3.602 4.5-.597.454-1.05.602-1.648.602-.602.074-1.352-.074-2.028-.523-.898-.676-1.273-2.778-2.625-3.829-1.875-1.421-7.046-1.5-8.546-3.148-1.051-1.125-.153-3-1.204-4.05-1.421-1.5-6.222-1.348-8.398-2.7-1.8-1.125-2.852-2.625-4.273-4.273-1.579-1.875-4.204-4.954-4.875-6.528-.227-.676-.301-.972-.227-1.648.227-1.125 1.875-2.926 2.176-4.278.3-1.125.148-2.324-.074-3.296-.153-.75-.454-1.204-.977-1.954-.898-1.125-2.324-3.148-4.125-3.898-2.25-.824-7.125.602-8.773.227-.75-.153-.903-.375-1.426-.75-1.051-.75-2.551-1.954-3.75-3.75-2.102-3.153-3.977-11.926-6-14.551-.977-1.2-2.176-1.051-2.926-2.176-1.125-1.8-2.25-7.8-1.648-8.176.296-.222 1.648.824 1.648.903 0 .074-4.05-1.051-4.648-2.028-.454-.75-.227-2.023.148-2.625.45-.597 1.273-.824 2.176-.898 1.199-.227 3.676-.074 4.648.523.602.375 1.125 1.125 1.051 1.727 0 .523-.602 1.347-1.05 1.5-.598.148-2.024-.903-2.098-.824 0 .074 1.273.671 1.199.898-.074.375-3.528-.227-5.25.074-1.653.227-3.301 1.574-4.801 1.653-1.426 0-2.773-.528-3.977-1.278-1.273-.824-2.023-2.847-3.296-3.824-1.125-.824-3.227-.977-3.75-1.875-.454-.676-.454-1.875-.153-2.324.375-.528 1.801-.75 2.324-.528.528.227 1.051 1.204.977 1.727-.074.602-.898 1.426-1.648 1.648-1.125.301-3.528-.597-4.653-1.273-.824-.45-1.125-1.5-1.8-1.727-.45-.148-.973 0-1.575.301-1.125.676-2.472 3.528-4.05 4.278-1.422.75-3.149-.153-4.95.597-2.773 1.2-6.375 5.926-9.222 7.653-2.102 1.273-3.676 1.949-6.079 2.398-3.222.602-9 .824-11.625.148-1.574-.375-2.699-1.125-3.375-1.875-.449-.523-.222-1.199-.824-1.722-1.199-1.125-5.176-3.528-8.023-2.926-4.426.977-10.051 11.25-14.403 14.625-2.921 2.25-6.597 4.727-8.171 4.727-.676 0-1.278-.454-1.426-.903-.227-.449.75-1.347.597-1.875-.148-.375-.75-.972-1.273-.898-1.125.074-3.074 3.898-5.102 5.699-2.398 2.176-6.597 4.125-8.398 6.074-1.2 1.2-1.2 2.324-2.324 3.602-1.653 1.949-5.403 4.949-7.574 6.523-1.352 1.051-2.625 2.25-3.676 2.324-.676.079-1.278-.148-1.801-.597-.676-.676-1.125-1.801-1.426-3.227-.597-2.699.301-8.773 0-12.074-.222-2.324-.824-3.148-1.125-5.852-.597-6.449-1.574-28.125 0-32.097.375-1.125.977-1.653 1.574-1.801.375-.148.903.074 1.204.3.375.302.972 1.126.75 1.5-.227.45-3.676.598-3.829.223-.148-.296.977-1.648 1.5-1.796.528-.079 1.278.296 1.579.597.296.301.523 1.2.449 1.2 0 0-.977-1.2-.75-1.422.375-.528 3.375.75 6.222.972 6.454.528 26.028.153 31.5-.523 1.875-.227 2.25-.75 3.903-.903 2.324-.296 6.074-.148 8.926-.222 2.625 0 4.796-.153 7.574.074 3.523.227 6.222 1.352 11.699 1.727 13.05.824 49.875-1.051 66.45-.676 9.902.222 14.1 1.273 23.777 1.273 15.296 0 39.222-3 59.097-3.375 20.25-.449 50.324 2.625 61.125.977 4.051-.602 5.852-2.852 8.176-2.7 1.727.075 3.898 1.047 4.426 1.95.375.597.148 1.722-.227 2.097-.449.375-1.648.602-2.097.301-.528-.3-.903-1.875-.676-2.472.148-.454.972-.829 1.426-.829.449 0 1.273.301 1.5.75.296.528 0 2.102-.454 2.477-.375.375-1.046.3-1.648.148-.75-.148-1.426-1.273-2.55-1.347-1.876-.153-4.2 2.398-7.876 3.074-7.347 1.426-26.55.45-34.5 0-4.273-.227-6-.824-9.676-1.05-4.796-.302-9.449-.223-16.796-.075-14.329.375-50.25 3.45-62.926 3.148-5.477-.148-6.153-.898-11.778-1.125-14.398-.597-62.25 1.5-76.347.602-5.477-.375-6.153-1.273-11.25-1.5-11.102-.602-43.5 2.25-52.426 1.5-3.148-.227-5.102-.375-6.227-1.2-.671-.448-1.125-1.124-1.125-1.652-.074-.523.301-1.199.75-1.5.375-.222 1.204-.375 1.653-.148.449.227 1.273 1.352 1.125 1.648-.227.375-3.074.153-3.227-.222-.148-.375.977-1.653 1.574-1.801.375-.148.903.074 1.204.3.375.302.597.598.75 1.5.972 3.75-.903 26.848-.227 33 .3 2.4.977 2.848 1.273 4.95.454 3.148 1.051 10.8.153 12.45-.301.6-1.278.902-1.278.902-.074-.079 3.903-2.778 5.778-4.579 2.176-2.097 4.574-6.074 6.222-7.347.829-.676 2.028-1.2 2.102-1.125 0 0-1.273 1.199-1.352 1.125-.074-.074.454-1.2 1.051-1.801 1.2-1.2 4.95-2.25 6.676-3.824 1.352-1.2 1.95-3.153 3.074-4.278a8.77 8.77 0 0 1 2.778-2.023c.824-.375 1.875-.676 2.625-.45.597.075 1.273.45 1.648 1.126.523 1.05.75 4.426.148 4.949-.375.3-1.648 0-1.949-.375-.3-.375-.3-1.2.153-1.95.972-1.652 8.921-6.374 9.148-6.152.074.153-.977 1.352-.977 1.278 0 0 .528-1.125 1.278-2.102 2.176-2.625 10.5-12.375 14.699-13.273 2.55-.528 4.95 1.347 6.75 2.25 1.426.676 2.926 1.5 3.523 2.25.301.523-.074 1.05.454 1.426 1.5 1.199 10.421 1.5 13.421.898 1.579-.3 2.102-.75 3.454-1.648 2.398-1.579 6.671-7.051 8.847-8.25 1.125-.602 2.028-.829 2.778-.75.597.074.898.824 1.5.824.597 0 1.347-.45 2.097-1.051 1.125-.824 2.403-3.3 3.528-3.977.824-.523 1.421-.671 2.472-.597 1.875.074 6.903 1.8 7.95 3.074.527.676.675 1.875.374 2.324-.375.528-2.097.903-2.625.528-.523-.301-.898-1.653-.671-2.176.296-.602 1.347-1.125 2.171-1.051 1.426.148 3.903 2.176 5.25 3.375.977.898 1.278 2.25 2.25 2.773.977.454 2.329.454 3.375.227 1.125-.148 1.954-1.2 3.153-1.5 1.5-.3 3.972-.227 5.25.074.75.227 1.574.45 1.8.903.223.523 0 1.722-.601 2.097-.824.676-4.727.528-5.176-.222-.3-.454.375-2.176.903-2.329.449-.148 1.347.454 1.949 1.125 1.199 1.426 3 6.227 3.222 7.875.079.829-.449 1.426-.222 1.801.222.375 1.273.153 1.8.528.75.449 1.649 1.5 2.098 2.546.528 1.278 0 3.227.602 4.727.676 1.648 3 3.375 3.375 4.727.222.824-.602 1.5-.301 2.324.45 1.273 2.773 3.148 4.727 3.972 2.398.977 6.449-.375 8.773.602 2.023.824 3.676 2.7 4.8 4.05.825.973 1.427 1.723 1.802 2.927.523 1.5 1.046 3.898.523 5.472-.523 1.574-3.602 3.824-3.602 3.824s1.278-1.5 1.5-1.421c.153.148-.296 1.046-.074 1.796.45 1.426 2.852 4.278 4.352 5.926 1.199 1.278 2.097 2.403 3.75 3.227 2.176 1.199 7.273 1.199 8.625 2.25.676.449.824.898.972 1.574.301.824-.449 2.477.301 3.375 1.051 1.352 5.778 1.125 7.653 2.398 1.5.977 3.222 2.926 3.222 3.903 0 .523-.972 1.199-.972 1.199-.079-.074 1.722-3.676 2.847-4.727 1.051-.972 2.477-1.875 3.528-1.796.75 0 1.421.597 2.171 1.273 1.051 1.125 2.329 2.926 2.852 5.102.676 3.296-.45 10.125-1.05 13.125-.302 1.574-.45 2.25-1.2 3.523-1.273 2.023-6.45 6.824-6.45 6.824s.973-1.199 1.126-1.125c.222.153-1.125 4.574-2.625 6.45-1.801 2.25-6.227 3.902-8.25 5.624-1.352 1.125-2.25 1.875-3.074 3.227-.903 1.5-1.426 3.148-1.875 5.398-.602 3.454-.977 10.051-.375 13.426.449 2.25 2.023 5.403 2.171 5.403.153-.079-.296-1.125-.074-1.579.227-.597.977-1.199 1.727-1.5.898-.449 2.023 0 3.375-.449 2.25-.75 5.847-3.898 8.25-4.574 1.648-.45 3.148-.676 4.347-.148 1.204.523 2.102 1.949 2.778 3.296.824 1.579.597 3.528 1.347 5.704 1.204 3.148 2.926 9.449 5.778 11.097 2.398 1.426 5.926-.824 9.148-.375 3.824.602 8.625 3.528 12.153 4.278 2.625.523 5.25-.375 7.046.597 1.579.75 2.625 2.25 3.528 3.903.972 1.875.972 5.25 1.8 6.898.524 1.05 1.047 1.574 1.876 2.398 1.046 1.125 2.699 2.852 3.898 3.528.898.449 1.352.222 2.398.676 2.329 1.125 10.875 7.046 10.653 7.5-.074.222-2.25-.153-2.324-.454-.079-.296 1.5-1.273 2.171-1.347.528-.074.829.449 1.426.375 1.574-.074 4.801-2.25 7.2-3.074 2.175-.75 4.203-1.352 6.527-1.579 2.773-.222 7.199 0 9 .528.824.3 1.347.523 1.648 1.05.45.598-.222 2.325.227 2.7.3.3.824.074 1.648-.074 2.477-.301 12.528-1.875 15.375-3.454 1.426-.75 1.574-1.875 2.551-2.546 1.05-.676 1.875-1.204 3.602-1.5 3.671-.676 13.125 1.421 18.222.597 3.903-.597 6.977-3.148 9.903-3.597 2.097-.375 4.722-.454 5.699.222.597.301.898 1.051.824 1.5-.074.528-1.5 1.352-1.5 1.352"/></clipPath><clipPath id="C"><path d="M.648 0h342.305v190.84H.648Zm0 0"/></clipPath><clipPath id="D"><path d="M341.375 179.05c-7.574.598-10.125 3.075-13.727 3.75-5.171 1.052-15.824-1.726-19.949-.3-2.25.824-2.398 2.7-4.574 3.75-3.523 1.727-12.602 3.227-15.898 3.676-1.5.148-2.403.449-3.301.148-.75-.222-1.426-.824-1.801-1.5-.45-.824.523-2.625-.227-3.222-1.046-.977-4.796-.153-7.722.375-3.903.75-10.125 3.671-13.278 4.273-1.648.375-2.324.75-3.972.3-3.676-.902-13.051-7.124-16.278-10.277-1.796-1.722-2.625-3-3.449-4.796-.824-1.875-.75-4.5-1.5-6.153-.523-1.273-1.347-2.847-2.023-3-.45-.148-.676.676-1.352.824-1.648.301-5.847-.523-8.55-1.5-2.626-1.046-5.098-4.046-7.422-4.421-1.954-.301-3.829 1.273-5.704 1.421-1.796.079-3.972.227-5.398-.597-1.352-.676-2.023-2.176-2.926-3.602a31.599 31.599 0 0 1-3.148-6.148c-.977-2.477-1.5-6.301-2.324-7.95-.454-.828-.75-1.425-1.426-1.726-.824-.375-2.25-.148-3.227.227-1.05.296-1.574 1.273-3 1.949-2.472 1.347-9.3 4.875-11.398 4.574-.977-.148-1.278-.75-1.875-1.5a12.442 12.442 0 0 1-2.176-4.8c-.75-3.598-.45-11.177.227-15.302.523-2.921 1.125-5.324 2.546-7.273 1.278-1.875 3.602-3.3 5.403-4.5 1.574-1.05 3.523-1.5 4.722-2.55a8.83 8.83 0 0 0 2.477-3.15c.523-1.05.074-2.25.676-3.448.972-1.875 4.574-3.454 5.847-6.227 1.727-3.75 2.551-12.227 1.801-15.148-.375-1.352-1.273-2.704-2.023-2.704-.977 0-2.477 3.676-3.602 4.5-.597.454-1.05.602-1.648.602-.602.074-1.352-.074-2.028-.523-.898-.676-1.273-2.778-2.625-3.829-1.875-1.421-7.046-1.5-8.546-3.148-1.051-1.125-.153-3-1.204-4.05-1.421-1.5-6.222-1.348-8.398-2.7-1.8-1.125-2.852-2.625-4.273-4.273-1.579-1.875-4.204-4.954-4.875-6.528-.227-.676-.301-.972-.227-1.648.227-1.125 1.875-2.926 2.176-4.278.3-1.125.148-2.324-.074-3.296-.153-.75-.454-1.204-.977-1.954-.898-1.125-2.324-3.148-4.125-3.898-2.25-.824-7.125.602-8.773.227-.75-.153-.903-.375-1.426-.75-1.051-.75-2.551-1.954-3.75-3.75-2.102-3.153-3.977-11.926-6-14.551-.977-1.2-2.176-1.051-2.926-2.176-1.125-1.8-2.25-7.8-1.648-8.176.296-.222 1.648.824 1.648.903 0 .074-4.05-1.051-4.648-2.028-.454-.75-.227-2.023.148-2.625.45-.597 1.273-.824 2.176-.898 1.199-.227 3.676-.074 4.648.523.602.375 1.125 1.125 1.051 1.727 0 .523-.602 1.347-1.05 1.5-.598.148-2.024-.903-2.098-.824 0 .074 1.273.671 1.199.898-.074.375-3.528-.227-5.25.074-1.653.227-3.301 1.574-4.801 1.653-1.426 0-2.773-.528-3.977-1.278-1.273-.824-2.023-2.847-3.296-3.824-1.125-.824-3.227-.977-3.75-1.875-.454-.676-.454-1.875-.153-2.324.375-.528 1.801-.75 2.324-.528.528.227 1.051 1.204.977 1.727-.074.602-.898 1.426-1.648 1.648-1.125.301-3.528-.597-4.653-1.273-.824-.45-1.125-1.5-1.8-1.727-.45-.148-.973 0-1.575.301-1.125.676-2.472 3.528-4.05 4.278-1.422.75-3.149-.153-4.95.597-2.773 1.2-6.375 5.926-9.222 7.653-2.102 1.273-3.676 1.949-6.079 2.398-3.222.602-9 .824-11.625.148-1.574-.375-2.699-1.125-3.375-1.875-.449-.523-.222-1.199-.824-1.722-1.199-1.125-5.176-3.528-8.023-2.926-4.426.977-10.051 11.25-14.403 14.625-2.921 2.25-6.597 4.727-8.171 4.727-.676 0-1.278-.454-1.426-.903-.227-.449.75-1.347.597-1.875-.148-.375-.75-.972-1.273-.898-1.125.074-3.074 3.898-5.102 5.699-2.398 2.176-6.597 4.125-8.398 6.074-1.2 1.2-1.2 2.324-2.324 3.602-1.653 1.949-5.403 4.949-7.574 6.523-1.352 1.051-2.625 2.25-3.676 2.324-.676.079-1.278-.148-1.801-.597-.676-.676-1.125-1.801-1.426-3.227-.597-2.699.301-8.773 0-12.074C2.602 40.301 2 39.477 1.7 36.773 1.102 30.324.125 8.648 1.7 4.676c.375-1.125.977-1.653 1.574-1.801.375-.148.903.074 1.204.3.375.302.972 1.126.75 1.5-.227.45-3.676.598-3.829.223-.148-.296.977-1.648 1.5-1.796.528-.079 1.278.296 1.579.597.296.301.523 1.2.449 1.2 0 0-.977-1.2-.75-1.422.375-.528 3.375.75 6.222.972 6.454.528 26.028.153 31.5-.523 1.875-.227 2.25-.75 3.903-.903 2.324-.296 6.074-.148 8.926-.222 2.625 0 4.796-.153 7.574.074 3.523.227 6.222 1.352 11.699 1.727 13.05.824 49.875-1.051 66.45-.676 9.902.222 14.1 1.273 23.777 1.273 15.296 0 39.222-3 59.097-3.375 20.25-.449 50.324 2.625 61.125.977 4.051-.602 5.852-2.852 8.176-2.7 1.727.075 3.898 1.047 4.426 1.95.375.597.148 1.722-.227 2.097-.449.375-1.648.602-2.097.301-.528-.3-.903-1.875-.676-2.472.148-.454.972-.829 1.426-.829.449 0 1.273.301 1.5.75.296.528 0 2.102-.454 2.477-.375.375-1.046.3-1.648.148-.75-.148-1.426-1.273-2.55-1.347-1.876-.153-4.2 2.398-7.876 3.074-7.347 1.426-26.55.45-34.5 0-4.273-.227-6-.824-9.676-1.05-4.796-.302-9.449-.223-16.796-.075-14.329.375-50.25 3.45-62.926 3.148-5.477-.148-6.153-.898-11.778-1.125-14.398-.597-62.25 1.5-76.347.602-5.477-.375-6.153-1.273-11.25-1.5-11.102-.602-43.5 2.25-52.426 1.5-3.148-.227-5.102-.375-6.227-1.2-.671-.448-1.125-1.124-1.125-1.652-.074-.523.301-1.199.75-1.5.375-.222 1.204-.375 1.653-.148.449.227 1.273 1.352 1.125 1.648-.227.375-3.074.153-3.227-.222-.148-.375.977-1.653 1.574-1.801.375-.148.903.074 1.204.3.375.302.597.598.75 1.5.972 3.75-.903 26.848-.227 33 .3 2.4.977 2.848 1.273 4.95.454 3.148 1.051 10.8.153 12.45-.301.6-1.278.902-1.278.902-.074-.079 3.903-2.778 5.778-4.579 2.176-2.097 4.574-6.074 6.222-7.347.829-.676 2.028-1.2 2.102-1.125 0 0-1.273 1.199-1.352 1.125-.074-.074.454-1.2 1.051-1.801 1.2-1.2 4.95-2.25 6.676-3.824 1.352-1.2 1.95-3.153 3.074-4.278a8.77 8.77 0 0 1 2.778-2.023c.824-.375 1.875-.676 2.625-.45.597.075 1.273.45 1.648 1.126.523 1.05.75 4.426.148 4.949-.375.3-1.648 0-1.949-.375-.3-.375-.3-1.2.153-1.95.972-1.652 8.921-6.374 9.148-6.152.074.153-.977 1.352-.977 1.278 0 0 .528-1.125 1.278-2.102 2.176-2.625 10.5-12.375 14.699-13.273 2.55-.528 4.95 1.347 6.75 2.25 1.426.676 2.926 1.5 3.523 2.25.301.523-.074 1.05.454 1.426 1.5 1.199 10.421 1.5 13.421.898 1.579-.3 2.102-.75 3.454-1.648 2.398-1.579 6.671-7.051 8.847-8.25 1.125-.602 2.028-.829 2.778-.75.597.074.898.824 1.5.824.597 0 1.347-.45 2.097-1.051 1.125-.824 2.403-3.3 3.528-3.977.824-.523 1.421-.671 2.472-.597 1.875.074 6.903 1.8 7.95 3.074.527.676.675 1.875.374 2.324-.375.528-2.097.903-2.625.528-.523-.301-.898-1.653-.671-2.176.296-.602 1.347-1.125 2.171-1.051 1.426.148 3.903 2.176 5.25 3.375.977.898 1.278 2.25 2.25 2.773.977.454 2.329.454 3.375.227 1.125-.148 1.954-1.2 3.153-1.5 1.5-.3 3.972-.227 5.25.074.75.227 1.574.45 1.8.903.223.523 0 1.722-.601 2.097-.824.676-4.727.528-5.176-.222-.3-.454.375-2.176.903-2.329.449-.148 1.347.454 1.949 1.125 1.199 1.426 3 6.227 3.222 7.875.079.829-.449 1.426-.222 1.801.222.375 1.273.153 1.8.528.75.449 1.649 1.5 2.098 2.546.528 1.278 0 3.227.602 4.727.676 1.648 3 3.375 3.375 4.727.222.824-.602 1.5-.301 2.324.45 1.273 2.773 3.148 4.727 3.972 2.398.977 6.449-.375 8.773.602 2.023.824 3.676 2.7 4.8 4.05.825.973 1.427 1.723 1.802 2.927.523 1.5 1.046 3.898.523 5.472-.523 1.574-3.602 3.824-3.602 3.824s1.278-1.5 1.5-1.421c.153.148-.296 1.046-.074 1.796.45 1.426 2.852 4.278 4.352 5.926 1.199 1.278 2.097 2.403 3.75 3.227 2.176 1.199 7.273 1.199 8.625 2.25.676.449.824.898.972 1.574.301.824-.449 2.477.301 3.375 1.051 1.352 5.778 1.125 7.653 2.398 1.5.977 3.222 2.926 3.222 3.903 0 .523-.972 1.199-.972 1.199-.079-.074 1.722-3.676 2.847-4.727 1.051-.972 2.477-1.875 3.528-1.796.75 0 1.421.597 2.171 1.273 1.051 1.125 2.329 2.926 2.852 5.102.676 3.296-.45 10.125-1.05 13.125-.302 1.574-.45 2.25-1.2 3.523-1.273 2.023-6.45 6.824-6.45 6.824s.973-1.199 1.126-1.125c.222.153-1.125 4.574-2.625 6.45-1.801 2.25-6.227 3.902-8.25 5.624-1.352 1.125-2.25 1.875-3.074 3.227-.903 1.5-1.426 3.148-1.875 5.398-.602 3.454-.977 10.051-.375 13.426.449 2.25 2.023 5.403 2.171 5.403.153-.079-.296-1.125-.074-1.579.227-.597.977-1.199 1.727-1.5.898-.449 2.023 0 3.375-.449 2.25-.75 5.847-3.898 8.25-4.574 1.648-.45 3.148-.676 4.347-.148 1.204.523 2.102 1.949 2.778 3.296.824 1.579.597 3.528 1.347 5.704 1.204 3.148 2.926 9.449 5.778 11.097 2.398 1.426 5.926-.824 9.148-.375 3.824.602 8.625 3.528 12.153 4.278 2.625.523 5.25-.375 7.046.597 1.579.75 2.625 2.25 3.528 3.903.972 1.875.972 5.25 1.8 6.898.524 1.05 1.047 1.574 1.876 2.398 1.046 1.125 2.699 2.852 3.898 3.528.898.449 1.352.222 2.398.676 2.329 1.125 10.875 7.046 10.653 7.5-.074.222-2.25-.153-2.324-.454-.079-.296 1.5-1.273 2.171-1.347.528-.074.829.449 1.426.375 1.574-.074 4.801-2.25 7.2-3.074 2.175-.75 4.203-1.352 6.527-1.579 2.773-.222 7.199 0 9 .528.824.3 1.347.523 1.648 1.05.45.598-.222 2.325.227 2.7.3.3.824.074 1.648-.074 2.477-.301 12.528-1.875 15.375-3.454 1.426-.75 1.574-1.875 2.551-2.546 1.05-.676 1.875-1.204 3.602-1.5 3.671-.676 13.125 1.421 18.222.597 3.903-.597 6.977-3.148 9.903-3.597 2.097-.375 4.722-.454 5.699.222.597.301.898 1.051.824 1.5-.074.528-1.5 1.352-1.5 1.352"/></clipPath><clipPath id="B"><path d="M0 0h343v191H0z"/></clipPath><clipPath id="E"><path d="M199.383 377.277h84.008v7.801h-84.008Zm0 0"/></clipPath><clipPath id="F"><path d="M281.852 382.875c-25.954-.375-26.403.3-27.903.676-2.097.449-4.273.676-7.648.898-6.676.375-21.977 1.125-29.7.074-5.027-.75-9.3-3.148-12.226-3.597-1.574-.227-2.926.375-3.824-.074-.602-.375-1.125-1.204-1.125-1.727 0-.523.375-1.2.824-1.426.375-.222 1.2-.3 1.574-.074.528.3 1.051 1.273.977 1.875 0 .45-.528 1.125-.977 1.273-.449.153-1.648-.074-2.023-.449-.301-.375-.528-1.125-.301-1.574.148-.523.824-1.05 1.648-1.273 1.204-.375 3.227-.153 5.25.222 2.926.528 5.852 2.7 10.204 3.375 7.199 1.2 21.597.676 29.472 0 5.324-.375 8.25-1.8 13.278-2.097 6.449-.375 19.5-.602 22.5.824.972.449 1.574 1.199 1.5 1.722 0 .528-1.5 1.352-1.5 1.352"/></clipPath><clipPath id="H"><path d="M.383.277H84.39v7.801H.383Zm0 0"/></clipPath><clipPath id="I"><path d="M82.852 5.875c-25.954-.375-26.403.3-27.903.676-2.097.449-4.273.676-7.648.898-6.676.375-21.977 1.125-29.7.074-5.027-.75-9.3-3.148-12.226-3.597-1.574-.227-2.926.375-3.824-.074C.949 3.477.426 2.648.426 2.125c0-.523.375-1.2.824-1.426.375-.222 1.2-.3 1.574-.074.528.3 1.051 1.273.977 1.875 0 .45-.528 1.125-.977 1.273-.449.153-1.648-.074-2.023-.449C.5 2.95.273 2.2.5 1.75.648 1.227 1.324.7 2.148.477 3.352.102 5.375.324 7.398.699c2.926.528 5.852 2.7 10.204 3.375 7.199 1.2 21.597.676 29.472 0 5.324-.375 8.25-1.8 13.278-2.097 6.449-.375 19.5-.602 22.5.824.972.449 1.574 1.199 1.5 1.722 0 .528-1.5 1.352-1.5 1.352"/></clipPath><clipPath id="G"><path d="M0 0h85v9H0z"/></clipPath><clipPath id="J"><path d="M194.906 170.14h9.211v209.301h-9.21Zm0 0"/></clipPath><clipPath id="K"><path d="M203.25 172.95c-4.2 9-1.05 17.698-.602 22.874.301 3.977.153 6 .227 10.574 0 8.852.523 28.125-.227 38.477-.597 7.125-2.171 10.8-2.773 17.926-.75 10.574.45 29.699-.074 39.3-.301 5.626-1.125 8.325-1.352 13.2-.375 6.148-.449 14.023-.148 21 .375 7.05 1.722 14.176 2.176 21.148.523 6.824 2.097 17.324.898 20.324-.375.977-1.2 1.727-1.8 1.653-.524 0-1.575-1.278-1.575-1.875-.074-.45.45-1.125.898-1.352.375-.148 1.204-.148 1.579 0 .449.227.898.903.898 1.352 0 .523-.523 1.648-1.05 1.8-.598.149-1.723-.374-2.25-1.05-.825-1.125-.598-3.375-.825-5.778-.227-4.046.375-10.574.074-16.199-.3-6.375-1.722-13.05-2.023-20.023-.45-7.5-.528-17.25-.074-23.551.296-4.273 1.125-6 1.421-10.648.602-9-.824-29.028.079-39.602.523-7.05 2.324-10.273 2.921-17.625.977-11.852.75-36.75-.222-47.102-.45-5.171-1.875-7.875-2.176-11.398-.3-3.148-.602-6.148.074-8.852.676-2.546 2.324-6 3.75-6.898.75-.523 2.028-.523 2.551-.227.375.301.523.977.45 1.426 0 .375-.825 1.125-.825 1.125"/></clipPath><clipPath id="M"><path d="M.906.14h9.211v209.301H.907Zm0 0"/></clipPath><clipPath id="N"><path d="M9.25 2.95c-4.2 9-1.05 17.698-.602 22.874.301 3.977.153 6 .227 10.574 0 8.852.523 28.125-.227 38.477-.597 7.125-2.171 10.8-2.773 17.926-.75 10.574.45 29.699-.074 39.3-.301 5.626-1.125 8.325-1.352 13.2-.375 6.148-.449 14.023-.148 21 .375 7.05 1.722 14.176 2.176 21.148.523 6.824 2.097 17.324.898 20.324-.375.977-1.2 1.727-1.8 1.653-.524 0-1.575-1.278-1.575-1.875-.074-.45.45-1.125.898-1.352.375-.148 1.204-.148 1.579 0 .449.227.898.903.898 1.352 0 .523-.523 1.648-1.05 1.8-.598.149-1.723-.374-2.25-1.05-.825-1.125-.598-3.375-.825-5.778-.227-4.046.375-10.574.074-16.199-.3-6.375-1.722-13.05-2.023-20.023-.45-7.5-.528-17.25-.074-23.551.296-4.273 1.125-6 1.421-10.648.602-9-.824-29.028.079-39.602.523-7.05 2.324-10.273 2.921-17.625.977-11.852.75-36.75-.222-47.102-.45-5.171-1.875-7.875-2.176-11.398-.3-3.148-.602-6.148.074-8.852.676-2.546 2.324-6 3.75-6.898.75-.523 2.028-.523 2.551-.227.375.301.523.977.45 1.426 0 .375-.825 1.125-.825 1.125"/></clipPath><clipPath id="L"><path d="M0 0h11v210H0z"/></clipPath><clipPath id="O"><path d="M195.34 112.61h8.984v61.796h-8.984Zm0 0"/></clipPath><clipPath id="P"><path d="M198.523 113.926c1.204 10.347 1.653 10.347 1.875 11.023.301 1.125-.523 4.125-.148 5.25.227.528.75.45 1.05 1.125.9 1.727 1.723 6.45 2.177 10.801.671 6.824 1.347 20.7.148 26.25-.676 2.7-1.875 5.176-2.852 5.773-.523.301-1.199.227-1.648 0-.375-.222-.898-.898-.898-1.347.074-.602 1.046-1.875 1.648-1.875.602-.074 1.8 1.125 1.8 1.722 0 .602-1.198 1.653-1.8 1.727-.602 0-1.426-.676-1.574-1.426-.375-1.125 1.426-3 1.875-5.55.824-5.325.824-18.45.074-25.047-.523-4.5-2.176-7.954-2.55-11.028-.223-2.25.374-4.347 0-5.773-.223-.824-.825-.977-1.126-1.95-.676-1.953-1.648-7.953-.972-9.601.296-.75.972-1.352 1.421-1.352.528 0 1.5 1.278 1.5 1.278"/></clipPath><clipPath id="R"><path d="M.34.61h8.984v61.796H.34Zm0 0"/></clipPath><clipPath id="S"><path d="M3.523 1.926c1.204 10.347 1.653 10.347 1.875 11.023.301 1.125-.523 4.125-.148 5.25.227.528.75.45 1.05 1.125.9 1.727 1.723 6.45 2.177 10.801.671 6.824 1.347 20.7.148 26.25-.676 2.7-1.875 5.176-2.852 5.773-.523.301-1.199.227-1.648 0-.375-.222-.898-.898-.898-1.347.074-.602 1.046-1.875 1.648-1.875.602-.074 1.8 1.125 1.8 1.722 0 .602-1.198 1.653-1.8 1.727-.602 0-1.426-.676-1.574-1.426-.375-1.125 1.426-3 1.875-5.55C6 50.073 6 36.948 5.25 30.351c-.523-4.5-2.176-7.954-2.55-11.028-.223-2.25.374-4.347 0-5.773-.223-.824-.825-.977-1.126-1.95C.898 9.649-.074 3.649.602 2 .898 1.25 1.574.648 2.023.648c.528 0 1.5 1.278 1.5 1.278"/></clipPath><clipPath id="Q"><path d="M0 0h10v63H0z"/></clipPath><clipPath id="T"><path d="M195.566 109.691h70.895v34.043h-70.895Zm0 0"/></clipPath><clipPath id="U"><path d="M197.102 109.727c25.273.523 27.148 2.25 31.046 2.773 5.852.824 17.477-.898 22.125-.074 2.25.449 3.153 1.574 4.875 1.875 1.801.375 4.204-.227 5.704.074.972.148 1.949.148 2.546.977 1.278 1.875-.074 9.296.602 12.671.45 2.329 1.574 3.528 1.875 5.704.45 2.546.75 7.273 0 8.773-.375.75-1.2 1.273-1.727 1.2-.597-.15-1.648-1.348-1.648-1.95 0-.523.898-1.426 1.426-1.5.449-.148 1.199.148 1.574.523.3.301.523 1.051.375 1.5-.148.528-1.05 1.426-1.574 1.426-.602-.074-1.426-.824-1.801-1.722-.676-1.653.45-5.551.074-7.954-.375-2.171-1.648-3.671-1.949-6-.45-2.921 1.648-8.699.227-10.273-1.204-1.273-4.5.148-6.375-.227-1.579-.375-2.176-1.347-4.204-1.722-4.574-.903-17.546.676-23.398-.227-3.602-.597-5.023-2.176-8.625-2.773-5.477-.903-18.898 1.347-21.523-.074-.829-.454-1.204-1.125-1.125-1.653 0-.523 1.5-1.347 1.5-1.347"/></clipPath><clipPath id="W"><path d="M.566.691h70.895v34.043H.566Zm0 0"/></clipPath><clipPath id="X"><path d="M2.102.727C27.375 1.25 29.25 2.977 33.148 3.5c5.852.824 17.477-.898 22.125-.074 2.25.449 3.153 1.574 4.875 1.875 1.801.375 4.204-.227 5.704.074.972.148 1.949.148 2.546.977 1.278 1.875-.074 9.296.602 12.671.45 2.329 1.574 3.528 1.875 5.704.45 2.546.75 7.273 0 8.773-.375.75-1.2 1.273-1.727 1.2-.597-.15-1.648-1.348-1.648-1.95 0-.523.898-1.426 1.426-1.5.449-.148 1.199.148 1.574.523.3.301.523 1.051.375 1.5-.148.528-1.05 1.426-1.574 1.426-.602-.074-1.426-.824-1.801-1.722-.676-1.653.45-5.551.074-7.954-.375-2.171-1.648-3.671-1.949-6-.45-2.921 1.648-8.699.227-10.273-1.204-1.273-4.5.148-6.375-.227-1.579-.375-2.176-1.347-4.204-1.722-4.574-.903-17.546.676-23.398-.227-3.602-.597-5.023-2.176-8.625-2.773-5.477-.903-18.898 1.347-21.523-.074C.898 3.273.523 2.602.602 2.074c0-.523 1.5-1.347 1.5-1.347"/></clipPath><clipPath id="V"><path d="M0 0h72v35H0z"/></clipPath><clipPath id="Y"><path d="M533.39 347.797h2.872v2.437h-2.871Zm0 0"/></clipPath><clipPath id="Z"><path d="M536.25 348.676c-1.273 2.023-2.477 1.648-2.7 1.199-.3-.45-.073-1.648.302-1.95.449-.3 2.023.15 2.023.15"/></clipPath><clipPath id="ab"><path d="M.39.797h2.872v2.437H.39Zm0 0"/></clipPath><clipPath id="ac"><path d="M3.25 1.676C1.977 3.699.773 3.324.55 2.875c-.3-.45-.073-1.648.302-1.95.449-.3 2.023.15 2.023.15"/></clipPath><clipPath id="aa"><path d="M0 0h4v4H0z"/></clipPath><clipPath id="ad"><path d="M499.707 355.863h2.805v2.438h-2.805Zm0 0"/></clipPath><clipPath id="ae"><path d="M502.5 356.7c-1.273 2.027-2.477 1.652-2.7 1.277-.226-.454 0-1.653.376-1.954.375-.375 1.949.079 1.949.079"/></clipPath><clipPath id="ag"><path d="M.707.863h2.805v2.438H.707Zm0 0"/></clipPath><clipPath id="ah"><path d="M3.5 1.7C2.227 3.726 1.023 3.351.8 2.976c-.226-.454 0-1.653.376-1.954.375-.375 1.949.079 1.949.079"/></clipPath><clipPath id="af"><path d="M0 0h4v4H0z"/></clipPath><clipPath id="ai"><path d="M462.879 370.824h2.808v2.469h-2.808Zm0 0"/></clipPath><clipPath id="aj"><path d="M465.676 371.7c-1.278 2.027-2.477 1.652-2.7 1.277-.226-.454 0-1.653.376-2.028.375-.3 1.949.153 1.949.153"/></clipPath><clipPath id="al"><path d="M.879.824h2.809v2.469H.877Zm0 0"/></clipPath><clipPath id="am"><path d="M3.676 1.7C2.398 3.726 1.199 3.351.976 2.976c-.226-.454 0-1.653.376-2.028.375-.3 1.949.153 1.949.153"/></clipPath><clipPath id="ak"><path d="M0 0h4v4H0z"/></clipPath><clipPath id="an"><path d="M531.098 400.07h2.84v2.442h-2.84Zm0 0"/></clipPath><clipPath id="ao"><path d="M533.926 400.95c-1.278 2.027-2.477 1.652-2.7 1.198-.226-.449-.078-1.648.376-1.949.375-.3 1.949.074 1.949.074"/></clipPath><clipPath id="aq"><path d="M.098.07h2.84v2.442H.098Zm0 0"/></clipPath><clipPath id="ar"><path d="M2.926.95C1.648 2.976.449 2.601.226 2.147 0 1.7.149.5.603.2.977-.1 2.55.273 2.55.273"/></clipPath><clipPath id="ap"><path d="M0 0h3v3H0z"/></clipPath><clipPath id="as"><path d="M485.8 322.836h10.333v10.586H485.8Zm0 0"/></clipPath><clipPath id="at"><path d="M496.125 326.55c0 3.302-.375 4.126-.898 4.802-.528.597-1.204 1.199-1.954 1.574-.75.3-1.722.449-2.472.449a6.432 6.432 0 0 1-2.403-.75c-.75-.45-1.347-1.125-1.796-1.8-.454-.677-.676-1.575-.75-2.4-.079-.823.148-1.726.449-2.476.375-.75.898-1.5 1.574-1.949.602-.523 1.5-.898 2.25-1.05.824-.15 1.727-.075 2.55.152.75.222 2.098 1.273 2.098 1.273"/></clipPath><clipPath id="av"><path d="M.8.836h10.333v10.586H.8Zm0 0"/></clipPath><clipPath id="aw"><path d="M11.125 4.55c0 3.302-.375 4.126-.898 4.802-.528.597-1.204 1.199-1.954 1.574-.75.3-1.722.449-2.472.449a6.432 6.432 0 0 1-2.403-.75c-.75-.45-1.347-1.125-1.796-1.8-.454-.677-.676-1.575-.75-2.4C.773 5.603 1 4.7 1.3 3.95c.375-.75.898-1.5 1.574-1.949.602-.523 1.5-.898 2.25-1.05.824-.15 1.727-.075 2.55.152.75.222 2.098 1.273 2.098 1.273"/></clipPath><clipPath id="au"><path d="M0 0h12v12H0z"/></clipPath><clipPath id="ax"><path d="M502.383 423.258h13.203v13.582h-13.203Zm0 0"/></clipPath><clipPath id="ay"><path d="M515.55 428.023c.075 4.278-.448 5.329-1.124 6.153-.602.824-1.574 1.574-2.477 2.023-.972.45-2.176.676-3.222.602-1.051-.074-2.176-.45-3.079-.977-.898-.523-1.722-1.426-2.25-2.324-.597-.898-.898-2.023-.972-3.074-.074-1.051.148-2.176.597-3.153.375-.972 1.125-1.875 1.954-2.546.824-.676 1.949-1.125 2.921-1.352 1.051-.148 2.25-.074 3.227.227 1.05.296 2.773 1.648 2.773 1.648"/></clipPath><clipPath id="aA"><path d="M.383.258h13.203V13.84H.383Zm0 0"/></clipPath><clipPath id="aB"><path d="M13.55 5.023c.075 4.278-.448 5.329-1.124 6.153-.602.824-1.574 1.574-2.477 2.023-.972.45-2.176.676-3.222.602-1.051-.074-2.176-.45-3.079-.977-.898-.523-1.722-1.426-2.25-2.324C.801 9.602.5 8.477.426 7.426c-.074-1.051.148-2.176.597-3.153.375-.972 1.125-1.875 1.954-2.546C3.8 1.05 4.926.602 5.898.375 6.95.227 8.148.301 9.125.602c1.05.296 2.773 1.648 2.773 1.648"/></clipPath><clipPath id="az"><path d="M0 0h14v14H0z"/></clipPath><clipPath id="aC"><path d="M621.316 342h13.278v13.54h-13.278Zm0 0"/></clipPath><clipPath id="aD"><path d="M634.555 346.727c0 4.273-.524 5.324-1.125 6.148-.672.824-1.575 1.574-2.547 2.023a9.466 9.466 0 0 1-3.227.602c-.976-.074-2.176-.45-3.074-.977-.902-.597-1.727-1.421-2.25-2.324-.527-.898-.902-2.023-.977-3.074-.074-1.05.153-2.25.602-3.148.45-.977 1.125-1.954 1.95-2.551.823-.676 1.948-1.125 3-1.352.976-.148 2.175-.074 3.226.227.972.3 2.773 1.648 2.773 1.648"/></clipPath><clipPath id="aF"><path d="M.316 0H13.56v13.54H.316Zm0 0"/></clipPath><clipPath id="aG"><path d="M13.555 4.727c0 4.273-.524 5.324-1.125 6.148-.672.824-1.575 1.574-2.547 2.023a9.466 9.466 0 0 1-3.227.602c-.976-.074-2.176-.45-3.074-.977-.902-.597-1.727-1.421-2.25-2.324C.805 9.301.43 8.176.355 7.125c-.074-1.05.153-2.25.602-3.148.45-.977 1.125-1.954 1.95-2.551C3.73.75 4.854.3 5.906.074 6.882-.074 8.081 0 9.132.301c.972.3 2.773 1.648 2.773 1.648"/></clipPath><clipPath id="aE"><path d="M0 0h14v14H0z"/></clipPath><clipPath id="aH"><path d="M252.82 279.332h13.282v13.582H252.82Zm0 0"/></clipPath><clipPath id="aI"><path d="M266.063 284.102c0 4.273-.524 5.324-1.125 6.148a8.211 8.211 0 0 1-2.551 2.023c-.973.454-2.176.602-3.223.602-1.05-.074-2.176-.45-3.078-.977-.899-.523-1.723-1.421-2.25-2.324-.524-.898-.899-2.023-.973-3.074-.074-1.05.149-2.176.598-3.148.375-.977 1.125-1.954 1.953-2.551.824-.676 1.95-1.125 3-1.352.973-.148 2.172-.074 3.223.227.976.3 2.699 1.648 2.699 1.648"/></clipPath><clipPath id="aK"><path d="M.82.332h13.282v13.582H.82Zm0 0"/></clipPath><clipPath id="aL"><path d="M14.063 5.102c0 4.273-.524 5.324-1.126 6.148a8.211 8.211 0 0 1-2.55 2.023c-.973.454-2.176.602-3.223.602-1.05-.074-2.176-.45-3.078-.977-.899-.523-1.723-1.421-2.25-2.324C1.312 9.676.937 8.551.863 7.5c-.074-1.05.149-2.176.598-3.148.375-.977 1.125-1.954 1.953-2.551.824-.676 1.95-1.125 3-1.352.973-.148 2.172-.074 3.223.227.976.3 2.699 1.648 2.699 1.648"/></clipPath><clipPath id="aJ"><path d="M0 0h15v14H0z"/></clipPath><clipPath id="aM"><path d="M418.496 261h3.606v3.059h-3.606Zm0 0"/></clipPath><clipPath id="aN"><path d="M422.102 262.05c-1.653 2.552-3.079 2.098-3.454 1.575-.296-.602 0-2.102.454-2.477.523-.375 2.472.153 2.472.153"/></clipPath><clipPath id="aP"><path d="M.496 0h3.606v3.059H.496Zm0 0"/></clipPath><clipPath id="aQ"><path d="M4.102 1.05C2.449 3.603 1.023 3.149.648 2.626c-.296-.602 0-2.102.454-2.477.523-.375 2.472.153 2.472.153"/></clipPath><clipPath id="aO"><path d="M0 0h5v4H0z"/></clipPath><clipPath id="aR"><path d="M630.754 513.227h1.45v1.222h-1.45Zm0 0"/></clipPath><clipPath id="aS"><path d="M632.176 513.676c-.602.972-1.2.824-1.352.597-.148-.222 0-.824.153-.972.222-.153 1.046.074 1.046.074"/></clipPath><clipPath id="aU"><path d="M.754.227h1.45v1.222H.753Zm0 0"/></clipPath><clipPath id="aV"><path d="M2.176.676c-.602.972-1.2.824-1.352.597-.148-.222 0-.824.153-.972.222-.153 1.046.074 1.046.074"/></clipPath><clipPath id="aT"><path d="M0 0h3v2H0z"/></clipPath><clipPath id="aW"><path d="M633.152 513.227h1.45v1.222h-1.45Zm0 0"/></clipPath><clipPath id="aX"><path d="M634.574 513.676c-.597.972-1.199.824-1.347.597-.153-.222 0-.824.222-.972.153-.153.977.074.977.074"/></clipPath><clipPath id="aZ"><path d="M.152.227h1.45v1.222H.152Zm0 0"/></clipPath><clipPath id="ba"><path d="M1.574.676C.977 1.648.375 1.5.227 1.273.074 1.051.227.45.449.301c.153-.153.977.074.977.074"/></clipPath><clipPath id="aY"><path d="M0 0h2v2H0z"/></clipPath><clipPath id="bb"><path d="M633.152 510.828h1.45v1.223h-1.45Zm0 0"/></clipPath><clipPath id="bc"><path d="M634.574 511.273c-.597.977-1.199.829-1.347.602-.153-.227 0-.824.222-.977.153-.148.977.079.977.079"/></clipPath><clipPath id="be"><path d="M.152.828h1.45v1.223H.152Zm0 0"/></clipPath><clipPath id="bf"><path d="M1.574 1.273c-.597.977-1.199.829-1.347.602-.153-.227 0-.824.222-.977.153-.148.977.079.977.079"/></clipPath><clipPath id="bd"><path d="M0 0h2v3H0z"/></clipPath><clipPath id="bg"><path d="M620.762 511.043h13.894v42.14h-13.894Zm0 0"/></clipPath><clipPath id="bh"><path d="M634.648 511.5c-2.171 9.75-3.375 10.2-4.347 11.773-1.574 2.551-3.903 7.875-5.028 10.875-.75 1.954-1.199 3.153-1.5 5.176-.449 2.625.375 8.25-.296 9.45-.153.374-.528.226-.75.527-.375.676.148 3.523-.375 3.824-.301.227-1.278-.3-1.352-.523 0-.227.676-.75.898-.676.227.074.602.972.528 1.125-.153.148-1.2 0-1.426-.375-.375-.528-.074-2.477.3-3.301.223-.602.9-.602 1.126-1.352.676-1.648-.602-7.875.074-9.523.3-.75.824-.676 1.2-1.352.6-1.347.374-5.171 1.198-6.824.528-1.125 1.579-1.426 2.25-2.472.829-1.426 1.204-3.977 2.102-5.477.824-1.352 2.477-2.324 2.926-3.375.3-.824-.227-1.727 0-2.324.222-.528.972-.75 1.199-1.352.3-.972-.602-3.824-.148-4.199.296-.227 1.421.375 1.421.375"/></clipPath><clipPath id="bj"><path d="M.762.043h13.894v42.14H.762Zm0 0"/></clipPath><clipPath id="bk"><path d="M14.648.5c-2.171 9.75-3.375 10.2-4.347 11.773-1.574 2.551-3.903 7.875-5.028 10.875-.75 1.954-1.199 3.153-1.5 5.176-.449 2.625.375 8.25-.296 9.45-.153.374-.528.226-.75.527-.375.676.148 3.523-.375 3.824-.301.227-1.278-.3-1.352-.523 0-.227.676-.75.898-.676.227.074.602.972.528 1.125-.153.148-1.2 0-1.426-.375-.375-.528-.074-2.477.3-3.301.223-.602.9-.602 1.126-1.352.676-1.648-.602-7.875.074-9.523.3-.75.824-.676 1.2-1.352.6-1.347.374-5.171 1.198-6.824.528-1.125 1.579-1.426 2.25-2.472.829-1.426 1.204-3.977 2.102-5.477.824-1.352 2.477-2.324 2.926-3.375.3-.824-.227-1.727 0-2.324.222-.528.972-.75 1.199-1.352.3-.972-.602-3.824-.148-4.199.296-.227 1.421.375 1.421.375"/></clipPath><clipPath id="bi"><path d="M0 0h15v43H0z"/></clipPath><clipPath id="bl"><path d="M495.527 361.879h1.45v1.277h-1.45Zm0 0"/></clipPath><clipPath id="bm"><path d="M496.95 362.324c-.598 1.051-1.2.824-1.348.676-.153-.227 0-.898.148-1.05.227-.15 1.05.073 1.05.073"/></clipPath><clipPath id="bo"><path d="M.527.879h1.45v1.277H.527Zm0 0"/></clipPath><clipPath id="bp"><path d="M1.95 1.324C1.351 2.375.75 2.148.601 2c-.153-.227 0-.898.148-1.05.227-.15 1.05.073 1.05.073"/></clipPath><clipPath id="bn"><path d="M0 0h2v3H0z"/></clipPath></defs><g clip-path="url(#a)"><g clip-path="url(#b)"><g clip-path="url(#c)" transform="translate(425 290)"><g clip-path="url(#d)"><g clip-path="url(#e)"><path fill="#eed7c5" d="M.14.93h143.317v143.316H.141Zm0 0"/></g></g></g></g></g><g clip-path="url(#f)"><g clip-path="url(#g)"><g clip-path="url(#h)" transform="translate(426 291)"><g clip-path="url(#i)"><g clip-path="url(#j)"><path fill="#eed7c5" d="M-637.2-423H745.2v864H-637.2z"/></g></g></g></g></g><g clip-path="url(#k)"><g clip-path="url(#l)"><g clip-path="url(#m)" transform="translate(262 140)"><g clip-path="url(#n)"><g clip-path="url(#o)"><path fill="#1e1e1e" d="M-473.2-272H909.2v864H-473.2z"/></g></g></g></g></g><g clip-path="url(#p)"><g clip-path="url(#q)"><g clip-path="url(#r)" transform="translate(574 209)"><g clip-path="url(#s)"><g clip-path="url(#t)"><path fill="#1e1e1e" d="M-785.2-341H597.2v864H-785.2z"/></g></g></g></g></g><g clip-path="url(#u)"><g clip-path="url(#v)"><g clip-path="url(#w)" transform="translate(573 380)"><g clip-path="url(#x)"><g clip-path="url(#y)"><path fill="#1e1e1e" d="M-784.2-512H598.2v864H-784.2z"/></g></g></g></g></g><g clip-path="url(#z)"><g clip-path="url(#A)"><g clip-path="url(#B)" transform="translate(280 377)"><g clip-path="url(#C)"><g clip-path="url(#D)"><path fill="#1e1e1e" d="M-491.2-509H891.2v864H-491.2z"/></g></g></g></g></g><g clip-path="url(#E)"><g clip-path="url(#F)"><g clip-path="url(#G)" transform="translate(199 377)"><g clip-path="url(#H)"><g clip-path="url(#I)"><path fill="#1e1e1e" d="M-410.2-509H972.2v864H-410.2z"/></g></g></g></g></g><g clip-path="url(#J)"><g clip-path="url(#K)"><g clip-path="url(#L)" transform="translate(194 170)"><g clip-path="url(#M)"><g clip-path="url(#N)"><path fill="#1e1e1e" d="M-405.2-302H977.2v864H-405.2z"/></g></g></g></g></g><g clip-path="url(#O)"><g clip-path="url(#P)"><g clip-path="url(#Q)" transform="translate(195 112)"><g clip-path="url(#R)"><g clip-path="url(#S)"><path fill="#1e1e1e" d="M-406.2-244H976.2v864H-406.2z"/></g></g></g></g></g><g clip-path="url(#T)"><g clip-path="url(#U)"><g clip-path="url(#V)" transform="translate(195 109)"><g clip-path="url(#W)"><g clip-path="url(#X)"><path fill="#1e1e1e" d="M-406.2-241H976.2v864H-406.2z"/></g></g></g></g></g><g clip-path="url(#Y)"><g clip-path="url(#Z)"><g clip-path="url(#aa)" transform="translate(533 347)"><g clip-path="url(#ab)"><g clip-path="url(#ac)"><path fill="#1e1e1e" d="M-744.2-479H638.2v864H-744.2z"/></g></g></g></g></g><g clip-path="url(#ad)"><g clip-path="url(#ae)"><g clip-path="url(#af)" transform="translate(499 355)"><g clip-path="url(#ag)"><g clip-path="url(#ah)"><path fill="#1e1e1e" d="M-710.2-487H672.2v864H-710.2z"/></g></g></g></g></g><g clip-path="url(#ai)"><g clip-path="url(#aj)"><g clip-path="url(#ak)" transform="translate(462 370)"><g clip-path="url(#al)"><g clip-path="url(#am)"><path fill="#1e1e1e" d="M-673.2-502H709.2v864H-673.2z"/></g></g></g></g></g><path d="M465.378 320.393v-8.734h1.094v3.781h4.594v-3.781h1.109v8.734h-1.11v-3.984h-4.593v3.984ZM475.921 320.534c-.418 0-.793-.074-1.125-.219a1.892 1.892 0 0 1-.797-.672c-.199-.3-.297-.664-.297-1.093 0-.375.07-.676.22-.907a1.62 1.62 0 0 1 .577-.547c.25-.132.52-.234.813-.296.3-.07.61-.125.922-.157.394-.05.71-.093.953-.125.238-.031.414-.078.531-.14.113-.063.172-.172.172-.328v-.047a1.4 1.4 0 0 0-.156-.672.989.989 0 0 0-.47-.422c-.198-.102-.448-.156-.75-.156a2.02 2.02 0 0 0-.796.14 1.583 1.583 0 0 0-.547.375c-.137.149-.23.305-.281.469l-1.016-.266c.133-.394.336-.71.61-.953.27-.238.578-.41.921-.515a3.558 3.558 0 0 1 1.094-.172c.25 0 .516.031.797.094.281.062.54.18.781.343.25.157.453.387.61.688.156.293.234.668.234 1.125v4.312h-1.016v-.89h-.062a1.637 1.637 0 0 1-.36.468 2.036 2.036 0 0 1-.624.407 2.587 2.587 0 0 1-.938.156Zm.172-.922c.395 0 .723-.07.984-.219.27-.156.473-.351.61-.593.133-.25.203-.504.203-.766v-.875c-.043.043-.133.086-.266.125a3.799 3.799 0 0 1-.469.11c-.18.03-.355.058-.53.077-.18.024-.325.04-.438.047-.25.032-.485.09-.703.172a1.255 1.255 0 0 0-.532.328c-.136.149-.203.34-.203.578 0 .22.055.407.172.563.113.148.27.262.469.344.207.074.441.109.703.109ZM480.698 320.393v-6.468h1v1h.063c.113-.333.316-.598.61-.797.3-.196.644-.297 1.03-.297.083 0 .176.008.282.015h.234v1.047a1.998 1.998 0 0 0-.234-.031 2.551 2.551 0 0 0-.39-.031c-.294 0-.56.062-.798.187-.242.125-.43.305-.562.532-.137.23-.203.5-.203.812v4.031ZM485.216 320.393v-6.468h1v1h.063c.113-.333.316-.598.609-.797.3-.196.644-.297 1.031-.297.082 0 .176.008.281.015h.235v1.047a1.998 1.998 0 0 0-.235-.031 2.551 2.551 0 0 0-.39-.031c-.293 0-.559.062-.797.187-.242.125-.43.305-.563.532-.136.23-.203.5-.203.812v4.031ZM489.68 320.393v-6.468h1.032v6.468Zm.517-7.578a.723.723 0 0 1-.516-.203.652.652 0 0 1-.203-.484c0-.196.066-.36.203-.485a.74.74 0 0 1 1.016 0c.144.125.218.29.218.485a.64.64 0 0 1-.219.484.68.68 0 0 1-.5.203ZM494.697 320.534c-.45 0-.852-.07-1.204-.203a2.138 2.138 0 0 1-.859-.594 1.96 1.96 0 0 1-.438-.984l1-.188c.083.356.25.621.5.797.258.18.586.266.985.266.445 0 .805-.094 1.078-.282.27-.195.406-.43.406-.703a.73.73 0 0 0-.25-.562c-.156-.145-.39-.254-.703-.328l-1.078-.266c-.594-.133-1.04-.348-1.328-.64-.281-.29-.422-.665-.422-1.126 0-.375.098-.703.297-.984.207-.281.488-.5.844-.656.363-.164.78-.25 1.25-.25.437 0 .816.074 1.14.219.32.136.582.328.781.578.196.25.333.539.407.859l-.953.203a1.373 1.373 0 0 0-.438-.672c-.21-.195-.523-.297-.937-.297-.399 0-.72.09-.97.266-.25.18-.374.402-.374.672 0 .25.086.45.266.594.175.136.445.25.812.343l.984.235c.594.136 1.032.351 1.313.64.281.293.422.664.422 1.11 0 .386-.11.726-.328 1.015-.211.293-.508.524-.891.688a3.25 3.25 0 0 1-1.313.25ZM501.702 320.534c-.386 0-.703-.063-.953-.188a2.103 2.103 0 0 1-.61-.468 4.374 4.374 0 0 1-.359-.485h-.093v1h-1v-8.734h1.031v3.281h.078c.082-.144.195-.3.344-.469.144-.175.344-.328.594-.453s.566-.187.953-.187c.55 0 1.031.136 1.437.406.414.273.739.656.969 1.156.238.5.36 1.094.36 1.782 0 .68-.122 1.273-.36 1.78-.23.5-.555.891-.969 1.173-.406.27-.883.406-1.422.406Zm-.156-.938c.395 0 .727-.101 1-.312.281-.219.488-.508.625-.875.145-.363.219-.781.219-1.25a3.34 3.34 0 0 0-.219-1.234 1.757 1.757 0 0 0-.625-.844c-.273-.207-.605-.313-1-.313-.406 0-.746.102-1.016.297-.273.2-.48.48-.625.844-.136.355-.203.773-.203 1.25 0 .48.067.906.203 1.281.145.367.352.652.625.86.282.199.618.296 1.016.296ZM508.146 320.487c-.438 0-.828-.09-1.172-.266a1.91 1.91 0 0 1-.781-.828c-.188-.363-.282-.82-.282-1.375v-4.093h1.032v4c0 .511.128.914.39 1.203.27.28.633.422 1.094.422.312 0 .586-.067.828-.204.25-.132.445-.332.594-.593.144-.27.219-.594.219-.97v-3.858h1.046v6.468h-1v-1.578h.157c-.2.606-.485 1.04-.86 1.297-.367.25-.789.375-1.265.375ZM512.89 320.393v-6.468h1v1h.062c.114-.333.317-.598.61-.797.3-.196.644-.297 1.031-.297.082 0 .176.008.281.015h.235v1.047a1.998 1.998 0 0 0-.235-.031 2.551 2.551 0 0 0-.39-.031c-.293 0-.559.062-.797.187-.242.125-.43.305-.563.532-.136.23-.203.5-.203.812v4.031ZM519.704 322.971a3.84 3.84 0 0 1-1.25-.187 2.398 2.398 0 0 1-1.422-1.266l.891-.437c.094.156.207.304.344.453.144.144.332.27.562.375.227.101.52.156.875.156.532 0 .961-.133 1.297-.39.332-.262.5-.657.5-1.188v-1.234h-.078a3.813 3.813 0 0 1-.375.484 1.725 1.725 0 0 1-.594.422c-.25.117-.57.172-.953.172-.523 0-.992-.125-1.406-.375a2.56 2.56 0 0 1-.984-1.094c-.243-.477-.36-1.055-.36-1.734 0-.664.113-1.243.344-1.735.238-.5.566-.883.984-1.156a2.58 2.58 0 0 1 1.438-.406c.394 0 .719.062.969.187s.445.278.593.453c.157.18.274.34.36.485h.078v-1.031h1.015v6.609c0 .562-.125 1.023-.375 1.39-.25.364-.59.63-1.015.797-.43.164-.906.25-1.438.25Zm-.03-3.562c.394 0 .726-.086 1-.266.28-.187.487-.453.624-.797.145-.343.219-.754.219-1.234 0-.457-.074-.863-.219-1.219a1.77 1.77 0 0 0-.625-.828c-.273-.195-.605-.297-1-.297-.398 0-.734.106-1.016.313-.28.199-.496.476-.64.828a3.336 3.336 0 0 0-.203 1.203c0 .469.07.875.218 1.219.145.344.352.61.625.797.282.187.618.28 1.016.28ZM486.528 420.9v-8.734h3.11c.601 0 1.101.105 1.5.312.406.211.706.484.906.828.195.344.297.735.297 1.172 0 .375-.063.684-.188.922a1.645 1.645 0 0 1-.516.594 2.4 2.4 0 0 1-.718.328v.078c.289.023.566.121.828.297.27.168.492.406.672.719.175.304.265.68.265 1.125 0 .46-.105.867-.312 1.218-.2.356-.516.637-.953.844-.438.2-1.008.297-1.703.297Zm1.094-.969h2.078c.676 0 1.164-.129 1.469-.39.3-.258.453-.594.453-1 0-.29-.078-.555-.235-.797a1.573 1.573 0 0 0-.64-.594c-.274-.145-.602-.219-.985-.219h-2.14Zm0-3.937h1.969c.332 0 .625-.055.875-.172.25-.125.445-.297.593-.516.145-.226.22-.488.22-.781 0-.395-.138-.723-.407-.984-.274-.27-.688-.407-1.25-.407h-2ZM496.057 421.04c-.418 0-.793-.074-1.125-.218a1.892 1.892 0 0 1-.797-.672c-.199-.3-.296-.664-.296-1.094 0-.375.07-.676.218-.906a1.62 1.62 0 0 1 .578-.547c.25-.133.52-.234.813-.297.3-.07.61-.125.922-.156.394-.05.71-.094.953-.125.238-.031.414-.078.531-.14.114-.063.172-.173.172-.329v-.047a1.4 1.4 0 0 0-.156-.672.989.989 0 0 0-.469-.421c-.2-.102-.45-.157-.75-.157a2.02 2.02 0 0 0-.797.141 1.583 1.583 0 0 0-.547.375c-.136.148-.23.305-.28.469l-1.017-.266c.133-.394.336-.71.61-.953.27-.238.578-.41.922-.516a3.558 3.558 0 0 1 1.093-.172c.25 0 .516.032.797.094.282.063.54.18.782.344.25.156.453.387.609.687.156.293.234.668.234 1.125v4.313h-1.015v-.89h-.063a1.637 1.637 0 0 1-.36.468 2.036 2.036 0 0 1-.624.406 2.587 2.587 0 0 1-.938.157Zm.172-.921c.395 0 .723-.07.985-.219.27-.156.472-.352.609-.594.133-.25.203-.504.203-.765v-.875c-.043.043-.133.086-.266.125a3.799 3.799 0 0 1-.468.109c-.18.031-.356.059-.532.078-.18.024-.324.04-.437.047-.25.031-.484.09-.703.172a1.255 1.255 0 0 0-.531.328c-.137.148-.204.34-.204.578 0 .219.055.406.172.563.114.148.27.261.47.343.206.075.44.11.702.11ZM501.866 412.166v8.734h-1.031v-8.734ZM506.409 414.431v.89h-3.39v-.89Zm-2.375-1.594h1.031v6.407c0 .281.055.484.172.61.125.124.32.187.594.187.07 0 .156-.004.25-.016.101-.008.203-.02.297-.031l.172.875a2.21 2.21 0 0 1-.375.062c-.137.02-.266.031-.391.031-.563 0-.996-.14-1.297-.421-.305-.29-.453-.696-.453-1.22ZM507.684 420.9v-6.469h1.032v6.469Zm.516-7.578a.723.723 0 0 1-.516-.203.652.652 0 0 1-.203-.485c0-.195.067-.359.203-.484a.74.74 0 0 1 1.016 0c.144.125.219.289.219.484a.64.64 0 0 1-.22.485.68.68 0 0 1-.5.203ZM510.497 420.9v-6.469h1.015v1.422h-.093c.093-.344.234-.629.422-.86a1.957 1.957 0 0 1 1.5-.687c.476 0 .867.149 1.171.438.313.293.508.664.594 1.11h-.156c.082-.313.223-.583.422-.813a2.2 2.2 0 0 1 .734-.532 2.3 2.3 0 0 1 .969-.203c.375 0 .719.086 1.031.25.313.168.563.418.75.75.188.336.281.75.281 1.25v4.344h-1.046v-4.313c0-.476-.137-.816-.407-1.015a1.446 1.446 0 0 0-.922-.313c-.293 0-.546.063-.765.188-.211.125-.375.297-.5.515a1.48 1.48 0 0 0-.172.735v4.203h-1.031v-4.422c0-.363-.125-.656-.375-.875a1.276 1.276 0 0 0-.907-.344 1.5 1.5 0 0 0-.734.188 1.423 1.423 0 0 0-.547.531c-.137.23-.203.524-.203.875v4.047ZM523.55 421.04c-.594 0-1.118-.14-1.563-.421a2.9 2.9 0 0 1-1.031-1.172c-.25-.5-.375-1.082-.375-1.75 0-.664.125-1.25.375-1.75.25-.508.594-.906 1.031-1.188.445-.28.969-.422 1.563-.422.582 0 1.097.141 1.546.422.446.282.797.68 1.047 1.188.25.5.375 1.086.375 1.75 0 .668-.125 1.25-.375 1.75s-.601.89-1.047 1.172c-.449.281-.964.422-1.546.422Zm0-.937c.425 0 .78-.11 1.062-.328.281-.219.488-.508.625-.875.145-.363.219-.766.219-1.203 0-.438-.074-.836-.219-1.203a1.934 1.934 0 0 0-.625-.89c-.281-.22-.637-.329-1.062-.329-.43 0-.782.11-1.063.328a2.039 2.039 0 0 0-.64.875 3.47 3.47 0 0 0-.204 1.219c0 .437.067.84.203 1.203.145.367.36.656.641.875.281.219.633.328 1.063.328ZM527.97 420.9v-6.469h1v1h.062c.113-.332.316-.597.61-.797.3-.195.644-.297 1.03-.297.083 0 .176.008.282.016h.234v1.047a1.998 1.998 0 0 0-.234-.031 2.551 2.551 0 0 0-.39-.032c-.294 0-.56.063-.798.188-.242.125-.43.305-.562.531-.137.23-.203.5-.203.813v4.031ZM534.862 421.04c-.625 0-1.168-.14-1.625-.421a2.851 2.851 0 0 1-1.047-1.172c-.242-.5-.36-1.078-.36-1.735 0-.664.118-1.25.36-1.75.25-.507.594-.906 1.031-1.187.438-.29.946-.438 1.532-.438.363 0 .71.063 1.047.188.343.125.648.32.921.578.27.262.485.602.641 1.016.156.418.234.914.234 1.484v.406h-5.078v-.89h4.516l-.484.328c0-.426-.07-.8-.204-1.125a1.725 1.725 0 0 0-.609-.781c-.273-.188-.602-.282-.984-.282-.387 0-.72.094-1 .282a1.786 1.786 0 0 0-.64.75 2.338 2.338 0 0 0-.22 1.015v.563c0 .468.078.875.235 1.218.164.336.394.59.687.766.301.168.649.25 1.047.25.27 0 .508-.035.719-.11.219-.081.398-.195.547-.343.156-.156.27-.344.343-.563l1.016.22a2.066 2.066 0 0 1-.516.905 2.442 2.442 0 0 1-.906.61 3.174 3.174 0 0 1-1.203.219Zm0 0"/><g clip-path="url(#an)"><g clip-path="url(#ao)"><g clip-path="url(#ap)" transform="translate(531 400)"><g clip-path="url(#aq)"><g clip-path="url(#ar)"><path fill="#1e1e1e" d="M-742.2-532H640.2v864H-742.2z"/></g></g></g></g></g><g clip-path="url(#as)"><g clip-path="url(#at)"><g clip-path="url(#au)" transform="translate(485 322)"><g clip-path="url(#av)"><g clip-path="url(#aw)"><path fill="#1e1e1e" d="M-696.2-454H686.2v864H-696.2z"/></g></g></g></g></g><g clip-path="url(#ax)"><g clip-path="url(#ay)"><g clip-path="url(#az)" transform="translate(502 423)"><g clip-path="url(#aA)"><g clip-path="url(#aB)"><path fill="#1e1e1e" d="M-713.2-555H669.2v864H-713.2z"/></g></g></g></g></g><g clip-path="url(#aC)"><g clip-path="url(#aD)"><g clip-path="url(#aE)" transform="translate(621 342)"><g clip-path="url(#aF)"><g clip-path="url(#aG)"><path fill="#1e1e1e" d="M-832.2-474H550.2v864H-832.2z"/></g></g></g></g></g><g clip-path="url(#aH)"><g clip-path="url(#aI)"><g clip-path="url(#aJ)" transform="translate(252 279)"><g clip-path="url(#aK)"><g clip-path="url(#aL)"><path fill="#1e1e1e" d="M-463.2-411H919.2v864H-463.2z"/></g></g></g></g></g><path d="M512.847 343.575v-8.734h1.094v7.765h4.078v.969ZM521.269 343.716c-.418 0-.793-.075-1.125-.22a1.892 1.892 0 0 1-.797-.671c-.2-.3-.297-.664-.297-1.094 0-.375.07-.676.219-.906a1.62 1.62 0 0 1 .578-.547c.25-.133.52-.234.812-.297.301-.07.61-.125.922-.156.395-.05.711-.094.953-.125.239-.031.414-.078.532-.14.113-.063.171-.172.171-.329v-.047a1.4 1.4 0 0 0-.156-.671.989.989 0 0 0-.469-.422c-.199-.102-.449-.157-.75-.157a2.02 2.02 0 0 0-.796.141 1.583 1.583 0 0 0-.547.375c-.137.148-.23.305-.282.469l-1.015-.266c.133-.394.336-.71.61-.953.269-.238.577-.41.921-.516a3.558 3.558 0 0 1 1.094-.171c.25 0 .515.03.797.093.281.063.539.18.781.344.25.156.453.387.61.688.156.292.234.667.234 1.125v4.312h-1.016v-.89h-.062a1.637 1.637 0 0 1-.36.468 2.036 2.036 0 0 1-.625.406 2.587 2.587 0 0 1-.937.157Zm.172-.922c.394 0 .722-.07.984-.219.27-.156.473-.352.61-.594.132-.25.202-.504.202-.765v-.875c-.043.043-.132.086-.265.125a3.799 3.799 0 0 1-.469.109c-.18.031-.355.059-.531.078-.18.024-.324.04-.438.047-.25.031-.484.09-.703.172a1.255 1.255 0 0 0-.531.328c-.137.148-.203.34-.203.578 0 .219.055.406.172.563.113.148.27.261.468.343.207.075.442.11.704.11ZM527.077 339.716v3.859h-1.031v-6.469h1v1.563h-.172c.195-.594.477-1.016.844-1.266a2.23 2.23 0 0 1 1.297-.39c.437 0 .82.093 1.156.28.332.18.594.45.781.813.196.367.297.824.297 1.375v4.094h-1.047v-4.016c0-.5-.133-.89-.39-1.171-.262-.29-.621-.438-1.078-.438-.313 0-.594.07-.844.203-.25.137-.45.336-.594.594-.148.262-.219.586-.219.969ZM535.66 343.716c-.594 0-1.118-.141-1.563-.422a2.9 2.9 0 0 1-1.031-1.172c-.25-.5-.375-1.082-.375-1.75 0-.664.125-1.25.375-1.75.25-.508.593-.906 1.03-1.188.446-.28.97-.421 1.563-.421.32 0 .625.042.907.125.289.085.55.21.78.375.227.167.423.37.579.609.164.23.289.492.375.781l-1.016.219a1.411 1.411 0 0 0-.203-.469 1.424 1.424 0 0 0-.36-.375 1.552 1.552 0 0 0-.468-.234 1.786 1.786 0 0 0-.594-.094c-.43 0-.78.11-1.062.328a2.039 2.039 0 0 0-.64.875 3.47 3.47 0 0 0-.204 1.219c0 .437.066.84.203 1.203.145.367.36.656.64.875.282.219.634.328 1.063.328.22 0 .414-.023.594-.078a1.546 1.546 0 0 0 .844-.64c.094-.157.16-.32.203-.5l1.016.234a2.46 2.46 0 0 1-.36.797c-.168.23-.37.433-.61.609-.23.168-.491.293-.78.375a2.86 2.86 0 0 1-.907.14ZM541.694 343.716c-.417 0-.792-.075-1.125-.22a1.892 1.892 0 0 1-.796-.671c-.2-.3-.297-.664-.297-1.094 0-.375.07-.676.218-.906a1.62 1.62 0 0 1 .579-.547c.25-.133.52-.234.812-.297.3-.07.61-.125.922-.156.395-.05.71-.094.953-.125.238-.031.414-.078.531-.14.114-.063.172-.172.172-.329v-.047a1.4 1.4 0 0 0-.156-.671.989.989 0 0 0-.469-.422c-.199-.102-.449-.157-.75-.157a2.02 2.02 0 0 0-.797.141 1.583 1.583 0 0 0-.547.375c-.136.148-.23.305-.28.469l-1.016-.266c.132-.394.336-.71.609-.953.27-.238.578-.41.922-.516a3.558 3.558 0 0 1 1.094-.171c.25 0 .515.03.796.093.282.063.54.18.782.344.25.156.453.387.61.688.155.292.233.667.233 1.125v4.312h-1.015v-.89h-.063a1.637 1.637 0 0 1-.359.468 2.036 2.036 0 0 1-.625.406 2.587 2.587 0 0 1-.938.157Zm.172-.922c.395 0 .723-.07.985-.219.27-.156.472-.352.61-.594.132-.25.202-.504.202-.765v-.875c-.043.043-.133.086-.265.125a3.799 3.799 0 0 1-.47.109c-.179.031-.355.059-.53.078-.18.024-.325.04-.438.047-.25.031-.484.09-.703.172a1.255 1.255 0 0 0-.531.328c-.137.148-.203.34-.203.578 0 .219.054.406.171.563.114.148.27.261.47.343.206.075.44.11.702.11ZM548.675 343.716c-.45 0-.852-.07-1.203-.203a2.138 2.138 0 0 1-.86-.594 1.96 1.96 0 0 1-.437-.985l1-.187c.082.355.25.621.5.797.258.18.586.265.984.265.446 0 .805-.093 1.078-.28.27-.196.407-.43.407-.704a.73.73 0 0 0-.25-.562c-.157-.145-.39-.254-.703-.329l-1.079-.265c-.593-.133-1.039-.348-1.328-.64-.28-.29-.422-.665-.422-1.126 0-.375.098-.703.297-.984.207-.281.489-.5.844-.656.363-.165.781-.25 1.25-.25.438 0 .816.074 1.14.218.321.137.583.328.782.578.195.25.332.54.406.86l-.953.203a1.373 1.373 0 0 0-.437-.672c-.211-.195-.524-.297-.938-.297-.398 0-.719.09-.969.266-.25.18-.375.402-.375.672 0 .25.086.449.266.593.176.137.445.25.812.344l.985.235c.594.136 1.031.351 1.312.64.282.293.422.664.422 1.11 0 .386-.11.726-.328 1.015-.21.293-.508.524-.89.688a3.25 3.25 0 0 1-1.313.25ZM555.298 337.106v.89h-3.39v-.89Zm-2.375-1.593h1.031v6.406c0 .281.055.484.172.61.125.124.32.187.594.187.07 0 .156-.004.25-.016.101-.008.203-.02.297-.031l.172.875a2.21 2.21 0 0 1-.375.062c-.137.02-.266.032-.391.032-.563 0-.996-.141-1.297-.422-.305-.29-.453-.696-.453-1.22ZM559.16 343.716c-.626 0-1.169-.141-1.626-.422a2.851 2.851 0 0 1-1.047-1.172c-.242-.5-.359-1.078-.359-1.734 0-.665.117-1.25.36-1.75.25-.508.593-.907 1.03-1.188.438-.29.946-.437 1.532-.437.363 0 .71.062 1.047.187.344.125.648.32.922.578.27.262.484.602.64 1.016.157.418.235.914.235 1.484v.406h-5.078v-.89h4.515l-.484.328c0-.426-.07-.8-.203-1.125a1.725 1.725 0 0 0-.61-.781c-.273-.188-.601-.282-.984-.282-.387 0-.719.094-1 .282a1.786 1.786 0 0 0-.64.75 2.338 2.338 0 0 0-.22 1.015v.563c0 .469.079.875.235 1.219.164.335.394.59.687.765.301.168.649.25 1.047.25.27 0 .508-.035.72-.11.218-.081.398-.195.546-.343.156-.156.27-.344.344-.562l1.015.218a2.066 2.066 0 0 1-.515.907 2.442 2.442 0 0 1-.907.609 3.174 3.174 0 0 1-1.203.219ZM563.33 343.575v-6.469h1v1h.062c.113-.332.316-.597.61-.797.3-.195.644-.296 1.03-.296.082 0 .176.007.282.015h.234v1.047a1.998 1.998 0 0 0-.234-.031 2.551 2.551 0 0 0-.391-.031c-.293 0-.559.062-.797.187-.242.125-.43.305-.562.531-.137.23-.204.5-.204.813v4.031ZM491.95 353.7v-3.578l-3.203-5.156h1.265l1.735 2.828c.195.304.367.601.515.89.157.282.317.625.485 1.032h-.453c.164-.407.32-.754.468-1.047.157-.29.32-.582.5-.875l1.735-2.828h1.265l-3.203 5.156v3.578ZM499.085 353.84c-.594 0-1.117-.14-1.563-.421a2.9 2.9 0 0 1-1.031-1.172c-.25-.5-.375-1.082-.375-1.75 0-.664.125-1.25.375-1.75.25-.508.594-.906 1.031-1.188.446-.28.969-.421 1.563-.421.582 0 1.097.14 1.547.421.445.282.797.68 1.047 1.188.25.5.375 1.086.375 1.75 0 .668-.125 1.25-.375 1.75s-.602.89-1.047 1.172c-.45.281-.965.422-1.547.422Zm0-.937c.426 0 .781-.11 1.062-.328.282-.219.489-.508.625-.875.145-.363.219-.766.219-1.203 0-.438-.074-.836-.219-1.203a1.934 1.934 0 0 0-.625-.89c-.281-.22-.636-.329-1.062-.329-.43 0-.781.11-1.063.328a2.039 2.039 0 0 0-.64.875 3.47 3.47 0 0 0-.203 1.219c0 .437.066.84.203 1.203.144.367.359.656.64.875.282.219.633.328 1.063.328ZM503.505 353.7v-6.469h1v1h.062c.113-.332.317-.597.61-.797.3-.195.644-.296 1.03-.296.083 0 .177.007.282.015h.234v1.047a1.998 1.998 0 0 0-.234-.031 2.551 2.551 0 0 0-.39-.031c-.294 0-.56.062-.797.187-.243.125-.43.305-.563.531-.137.23-.203.5-.203.813v4.031ZM508.962 351.372v-1.281h.172l2.812-2.86h1.297l-3.016 3.063h-.109Zm-.969 2.328v-8.734h1.031v8.734Zm4.125 0-2.5-3.172.734-.734 3.11 3.906ZM441.975 378.36c-.648 0-1.214-.157-1.703-.47a3.217 3.217 0 0 1-1.156-1.296c-.273-.563-.406-1.223-.406-1.985 0-.757.133-1.414.406-1.968.281-.563.66-.993 1.14-1.297.489-.313 1.051-.469 1.688-.469.375 0 .727.059 1.063.172.343.117.644.281.906.5.258.21.476.46.656.75.176.293.297.617.36.969h-.938a2.56 2.56 0 0 0-.297-.625 1.986 1.986 0 0 0-1.031-.813 2.35 2.35 0 0 0-.719-.11c-.45 0-.851.118-1.203.345-.344.23-.621.558-.828.984-.211.43-.313.95-.313 1.562 0 .618.102 1.137.313 1.563.207.43.488.758.844.984.363.23.77.344 1.218.344.414 0 .782-.086 1.094-.266.313-.175.555-.421.734-.734.188-.32.282-.703.282-1.14l.281.046h-2.172v-.812h2.797v.797c0 .593-.133 1.117-.39 1.562a2.793 2.793 0 0 1-1.079 1.031c-.449.25-.965.375-1.547.375ZM448.571 378.375c-.523 0-.976-.121-1.36-.36a2.406 2.406 0 0 1-.874-.984c-.2-.414-.297-.894-.297-1.437 0-.551.098-1.035.297-1.453.207-.426.492-.758.86-1 .362-.239.788-.36 1.28-.36.301 0 .594.055.875.157.282.105.536.265.766.484.227.219.406.5.531.844.133.343.203.757.203 1.234v.344h-4.25v-.735h3.766l-.39.266c0-.352-.06-.664-.173-.937-.117-.282-.289-.5-.515-.657-.219-.156-.492-.234-.813-.234-.324 0-.605.078-.843.234-.23.157-.407.367-.532.625a1.964 1.964 0 0 0-.187.86v.453c0 .398.066.734.203 1.015.133.282.328.496.578.641.25.148.54.219.875.219.219 0 .414-.031.594-.094.176-.07.328-.172.453-.297.133-.125.234-.281.297-.469l.844.188c-.086.281-.23.531-.438.75-.2.219-.45.39-.75.516a2.522 2.522 0 0 1-1 .187ZM454.203 372.86v.734h-2.813v-.735Zm-1.97-1.329h.86v5.344c0 .23.047.398.14.5.102.105.27.156.5.156.052 0 .118-.004.204-.015.094-.008.176-.016.25-.016l.14.719c-.093.031-.199.05-.312.062-.117.008-.226.016-.328.016-.469 0-.828-.113-1.078-.344-.25-.238-.375-.578-.375-1.015ZM457.36 372.86v.734h-2.812v-.735Zm-1.968-1.329h.86v5.344c0 .23.046.398.14.5.101.105.27.156.5.156.05 0 .117-.004.203-.015.094-.008.176-.016.25-.016l.14.719c-.093.031-.199.05-.312.062-.117.008-.226.016-.328.016-.469 0-.828-.113-1.078-.344-.25-.238-.375-.578-.375-1.015ZM458.577 380.25l.172-.766.187.016c.165.04.317.047.454.016a.602.602 0 0 0 .359-.22 1.73 1.73 0 0 0 .281-.515l.188-.515-2.078-5.407h.953l1.156 3.172c.113.324.21.64.297.953.082.313.172.618.265.907h-.296c.093-.29.18-.594.265-.907.082-.312.18-.629.297-.953l1.156-3.172h.938l-2.39 6.235a2.22 2.22 0 0 1-.391.687 1.34 1.34 0 0 1-.516.407c-.2.093-.422.14-.672.14-.148 0-.277-.012-.39-.031a4.013 4.013 0 0 0-.235-.047ZM465.97 378.375c-.376 0-.711-.059-1-.172a1.767 1.767 0 0 1-.72-.5 1.683 1.683 0 0 1-.359-.828l.828-.156c.063.304.196.527.407.672.218.148.492.218.828.218.375 0 .672-.078.89-.234.227-.164.344-.36.344-.578a.597.597 0 0 0-.203-.469c-.137-.125-.336-.219-.594-.281l-.89-.219c-.492-.113-.856-.289-1.094-.531-.242-.25-.36-.563-.36-.938 0-.312.083-.582.25-.812.165-.238.399-.426.704-.563a2.53 2.53 0 0 1 1.031-.203c.363 0 .68.059.953.172.27.117.484.277.64.485.165.21.282.453.344.734l-.78.156a1.234 1.234 0 0 0-.376-.562c-.18-.164-.437-.25-.781-.25-.324 0-.59.078-.797.234-.21.148-.312.336-.312.563 0 .199.07.359.218.484.145.117.368.21.672.281l.828.203c.489.117.848.293 1.078.532.239.242.36.546.36.921 0 .325-.09.61-.266.86a1.86 1.86 0 0 1-.75.578c-.312.133-.68.203-1.094.203ZM471.8 378.36c-.312 0-.574-.055-.78-.157a1.629 1.629 0 0 1-.516-.375 2.58 2.58 0 0 1-.297-.406h-.078v.828h-.844v-7.281h.875v2.734h.047c.07-.113.172-.242.297-.39.125-.145.289-.27.5-.375.207-.102.472-.157.796-.157.457 0 .86.117 1.204.344.343.23.609.555.796.969.196.418.297.906.297 1.469 0 .574-.101 1.07-.297 1.484a2.209 2.209 0 0 1-.796.969c-.344.23-.747.343-1.204.343Zm-.125-.782c.332 0 .614-.082.844-.25a1.62 1.62 0 0 0 .516-.719c.113-.312.172-.66.172-1.046 0-.383-.059-.727-.172-1.032a1.55 1.55 0 0 0-.516-.703 1.352 1.352 0 0 0-.844-.265c-.335 0-.617.085-.843.25-.23.167-.407.402-.532.703-.117.293-.171.64-.171 1.047 0 .398.054.75.171 1.062.125.305.301.54.532.703.226.168.508.25.843.25ZM477.162 378.328c-.367 0-.687-.074-.968-.219a1.691 1.691 0 0 1-.657-.687c-.156-.313-.234-.695-.234-1.156v-3.407h.875v3.329c0 .43.11.761.328 1 .219.242.52.359.906.359.25 0 .477-.055.688-.172.207-.113.367-.281.484-.5.125-.219.188-.484.188-.797v-3.219h.875v5.391h-.844v-1.312h.14c-.167.5-.406.859-.718 1.078-.305.21-.656.312-1.063.312ZM481.116 378.25v-5.39h.844v.828h.047c.094-.27.265-.489.515-.657.25-.164.536-.25.86-.25.062 0 .133.008.219.016h.203v.875a1.216 1.216 0 0 0-.188-.031 4.4 4.4 0 0 0-.328-.016c-.25 0-.477.055-.672.156-.2.106-.355.25-.469.438a1.356 1.356 0 0 0-.156.672v3.359ZM486.81 380.406c-.4 0-.747-.058-1.048-.172a2.014 2.014 0 0 1-.75-.437 1.949 1.949 0 0 1-.437-.61l.75-.359c.07.125.164.25.281.375.113.125.266.227.453.313.195.082.445.125.75.125.438 0 .79-.11 1.063-.328.28-.211.421-.54.421-.985v-1.031h-.062a2.855 2.855 0 0 1-.297.406 1.663 1.663 0 0 1-.5.36c-.21.093-.476.14-.797.14-.437 0-.836-.101-1.187-.312a2.116 2.116 0 0 1-.813-.907c-.199-.406-.297-.89-.297-1.453 0-.55.098-1.031.297-1.437.196-.414.469-.739.813-.969a2.132 2.132 0 0 1 1.203-.344c.32 0 .586.055.797.157.207.105.375.23.5.375.125.148.222.28.297.406h.062v-.86h.844v5.5c0 .477-.106.868-.313 1.172-.21.301-.492.52-.843.657-.356.144-.75.218-1.188.218Zm-.032-2.984c.332 0 .613-.07.844-.219.226-.156.398-.375.515-.656.114-.29.172-.633.172-1.031 0-.383-.058-.723-.172-1.016-.117-.289-.289-.52-.515-.687a1.42 1.42 0 0 0-.844-.25c-.336 0-.621.085-.86.25-.23.167-.402.402-.515.703a2.671 2.671 0 0 0-.172 1c0 .386.055.726.172 1.015.125.282.3.5.531.657.227.156.508.234.844.234ZM517.45 393.95v-7.281h2.593c.5 0 .914.09 1.25.265.332.168.582.399.75.688.164.293.25.62.25.984 0 .305-.055.559-.156.766-.106.199-.25.36-.438.484-.18.125-.375.219-.594.281v.063c.239.023.47.105.688.25.227.137.414.336.562.594.157.261.235.574.235.937 0 .387-.09.727-.266 1.016-.168.293-.433.527-.797.703-.367.168-.84.25-1.422.25Zm.921-.813h1.719c.562 0 .969-.101 1.219-.312.257-.219.39-.5.39-.844a1.21 1.21 0 0 0-.187-.656 1.275 1.275 0 0 0-.547-.484 1.717 1.717 0 0 0-.828-.188h-1.766Zm0-3.265h1.64c.27 0 .509-.051.72-.156.207-.102.374-.243.5-.422.124-.188.187-.407.187-.657 0-.332-.117-.609-.344-.828-.23-.218-.578-.328-1.047-.328h-1.656ZM526.112 394.075c-.524 0-.977-.121-1.36-.36a2.406 2.406 0 0 1-.875-.984c-.199-.414-.297-.894-.297-1.437 0-.551.098-1.035.297-1.453.207-.426.493-.758.86-1 .363-.239.789-.36 1.281-.36.3 0 .594.055.875.156.281.106.535.266.766.485.226.219.406.5.53.844.134.343.204.757.204 1.234v.344h-4.25v-.735h3.766l-.391.266c0-.352-.059-.664-.172-.938-.117-.28-.289-.5-.516-.656-.218-.156-.492-.234-.812-.234-.324 0-.605.078-.844.234-.23.156-.406.367-.531.625a1.964 1.964 0 0 0-.188.86v.453c0 .398.067.734.204 1.015.132.282.328.496.578.641.25.148.539.219.875.219.218 0 .414-.032.593-.094.176-.07.329-.172.454-.297.132-.125.234-.281.296-.469l.844.188c-.086.281-.23.531-.437.75-.2.219-.45.39-.75.515a2.522 2.522 0 0 1-1 .188ZM530.446 386.669v7.281h-.875v-7.281ZM534.142 393.95l2.656-7.281h1.047l2.672 7.281h-.97l-1.53-4.328c-.094-.27-.211-.602-.344-1a54.51 54.51 0 0 1-.453-1.516h.187c-.18.625-.328 1.137-.453 1.531-.125.399-.234.727-.328.985l-1.516 4.328Zm1.343-2.031v-.813h3.704v.813ZM541.515 393.95v-5.39h.875v5.39Zm.437-6.313a.614.614 0 0 1-.437-.171.544.544 0 0 1-.172-.407.55.55 0 0 1 .172-.406.63.63 0 0 1 .437-.172.587.587 0 0 1 .594.578.558.558 0 0 1-.172.407.572.572 0 0 1-.422.171ZM543.858 393.95v-5.39h.844v.827h.046c.094-.27.266-.488.516-.656.25-.164.535-.25.86-.25.062 0 .132.008.218.016h.203v.875a1.216 1.216 0 0 0-.187-.031 4.4 4.4 0 0 0-.328-.016c-.25 0-.477.055-.672.156-.2.106-.356.25-.469.438a1.356 1.356 0 0 0-.156.672v3.359ZM585.684 336.525v-8.734h3.016c.664 0 1.219.12 1.656.359.446.242.782.57 1 .984.219.418.328.887.328 1.407 0 .523-.117.996-.343 1.422a2.34 2.34 0 0 1-1 .984c-.438.242-.985.36-1.641.36h-2.219v-.97h2.172c.457 0 .828-.07 1.11-.218a1.38 1.38 0 0 0 .609-.64 2.17 2.17 0 0 0 .203-.938c0-.344-.07-.649-.203-.922a1.329 1.329 0 0 0-.625-.625c-.281-.156-.649-.235-1.094-.235h-1.875v7.766ZM594.184 332.666v3.859h-1.03v-8.734h1.03v3.828h-.203c.196-.594.477-1.016.844-1.266a2.23 2.23 0 0 1 1.297-.39c.437 0 .82.093 1.156.28.344.18.61.45.797.813.188.367.281.824.281 1.375v4.094h-1.047v-4.016c0-.5-.132-.89-.39-1.171-.262-.29-.621-.438-1.078-.438-.313 0-.594.07-.844.203-.25.137-.45.336-.594.594-.148.262-.219.586-.219.969ZM600.132 336.525v-6.469h1.03v6.469Zm.515-7.578a.723.723 0 0 1-.515-.203.652.652 0 0 1-.203-.485c0-.195.066-.359.203-.484a.74.74 0 0 1 1.015 0c.145.125.219.29.219.484a.64.64 0 0 1-.219.485.68.68 0 0 1-.5.203ZM603.975 327.79v8.735h-1.03v-8.734ZM607.6 336.666c-.418 0-.793-.075-1.125-.22a1.892 1.892 0 0 1-.796-.671c-.2-.3-.297-.664-.297-1.094 0-.375.07-.676.218-.906a1.62 1.62 0 0 1 .579-.547c.25-.133.519-.234.812-.297.3-.07.61-.125.922-.156.394-.05.71-.094.953-.125.238-.031.414-.078.531-.14.114-.063.172-.172.172-.329v-.047a1.4 1.4 0 0 0-.156-.671.989.989 0 0 0-.469-.422c-.2-.102-.45-.157-.75-.157a2.02 2.02 0 0 0-.797.141 1.583 1.583 0 0 0-.547.375c-.136.148-.23.305-.28.469l-1.016-.266c.132-.394.335-.71.609-.953.27-.238.578-.41.922-.516a3.558 3.558 0 0 1 1.094-.171c.25 0 .515.03.796.093.282.063.54.18.782.344.25.156.453.387.609.688.156.292.234.667.234 1.125v4.312h-1.015v-.89h-.063a1.637 1.637 0 0 1-.36.468 2.036 2.036 0 0 1-.624.406 2.587 2.587 0 0 1-.938.157Zm.172-.922c.395 0 .723-.07.985-.219.27-.156.472-.352.609-.594.133-.25.203-.504.203-.765v-.875c-.043.043-.133.086-.265.125a3.799 3.799 0 0 1-.47.109c-.179.031-.355.059-.53.078-.18.024-.325.04-.438.047-.25.031-.484.09-.703.172a1.255 1.255 0 0 0-.531.328c-.137.148-.203.34-.203.578 0 .219.054.406.171.563.114.148.27.261.47.343.206.075.44.11.702.11ZM614.815 336.666a2.58 2.58 0 0 1-1.437-.407 2.856 2.856 0 0 1-.985-1.171c-.23-.508-.343-1.102-.343-1.782 0-.687.113-1.281.343-1.781.239-.5.567-.883.985-1.156a2.58 2.58 0 0 1 1.437-.406c.383 0 .703.062.953.187s.446.277.594.453c.156.168.274.324.36.469h.062v-3.281h1.047v8.734h-1.016v-1h-.094a3.007 3.007 0 0 1-.359.484c-.156.18-.36.336-.61.47-.25.124-.562.187-.937.187Zm.14-.938c.395 0 .727-.098 1-.297a1.93 1.93 0 0 0 .641-.86c.145-.374.22-.8.22-1.28 0-.477-.075-.895-.22-1.25a1.757 1.757 0 0 0-.625-.844c-.273-.195-.609-.297-1.015-.297-.399 0-.735.105-1.016.313-.273.199-.48.48-.625.843a3.512 3.512 0 0 0-.203 1.235c0 .468.067.886.203 1.25.145.367.36.656.64.875.282.21.614.312 1 .312ZM622.305 336.666c-.625 0-1.167-.141-1.625-.422a2.851 2.851 0 0 1-1.046-1.172c-.243-.5-.36-1.078-.36-1.734 0-.665.117-1.25.36-1.75.25-.508.593-.907 1.03-1.188.438-.29.946-.437 1.532-.437.363 0 .711.062 1.047.187.344.125.648.32.922.578.27.262.484.602.64 1.016.157.418.235.914.235 1.484v.406h-5.078v-.89h4.515l-.484.328c0-.426-.07-.8-.203-1.125a1.725 1.725 0 0 0-.61-.781c-.273-.188-.601-.282-.984-.282-.387 0-.719.094-1 .282a1.786 1.786 0 0 0-.64.75 2.338 2.338 0 0 0-.22 1.015v.563c0 .469.079.875.235 1.219.164.335.395.59.688.765.3.168.648.25 1.046.25.27 0 .508-.035.72-.11.218-.081.398-.195.546-.343.156-.156.27-.344.344-.562l1.015.218a2.066 2.066 0 0 1-.515.907 2.442 2.442 0 0 1-.906.609 3.174 3.174 0 0 1-1.204.219ZM627.507 327.79v8.735h-1.032v-8.734ZM629.288 338.978v-8.922h1v1.016h.094c.082-.145.195-.3.343-.469.157-.176.36-.328.61-.453s.566-.187.953-.187c.55 0 1.031.136 1.437.406.414.273.739.656.97 1.156.237.5.359 1.094.359 1.781 0 .68-.122 1.274-.36 1.782-.23.5-.555.89-.969 1.171-.406.27-.882.407-1.421.407-.387 0-.704-.063-.954-.188a2.103 2.103 0 0 1-.609-.469 3.057 3.057 0 0 1-.344-.484h-.078v3.453Zm2.86-3.25c.394 0 .726-.101 1-.312.28-.22.488-.508.624-.875.145-.364.219-.782.219-1.25a3.34 3.34 0 0 0-.219-1.235 1.757 1.757 0 0 0-.625-.843c-.273-.208-.605-.313-1-.313-.406 0-.746.102-1.015.297-.274.2-.48.48-.625.844-.137.355-.203.773-.203 1.25 0 .48.066.906.203 1.28.144.368.351.653.625.86.28.2.617.297 1.015.297ZM637.544 332.666v3.859h-1.032v-8.734h1.032v3.828h-.203c.195-.594.476-1.016.843-1.266a2.23 2.23 0 0 1 1.297-.39c.438 0 .82.093 1.156.28.344.18.61.45.797.813.188.367.282.824.282 1.375v4.094h-1.047v-4.016c0-.5-.133-.89-.39-1.171-.263-.29-.622-.438-1.079-.438-.313 0-.594.07-.844.203-.25.137-.449.336-.594.594-.148.262-.218.586-.218.969ZM643.491 336.525v-6.469h1.031v6.469Zm.516-7.578a.723.723 0 0 1-.516-.203.652.652 0 0 1-.203-.485c0-.195.066-.359.203-.484a.74.74 0 0 1 1.016 0c.144.125.218.29.218.484a.64.64 0 0 1-.218.485.68.68 0 0 1-.5.203ZM648.147 336.666c-.418 0-.793-.075-1.125-.22a1.892 1.892 0 0 1-.797-.671c-.199-.3-.296-.664-.296-1.094 0-.375.07-.676.218-.906a1.62 1.62 0 0 1 .578-.547c.25-.133.52-.234.813-.297.3-.07.61-.125.922-.156.394-.05.71-.094.953-.125.238-.031.414-.078.531-.14.113-.063.172-.172.172-.329v-.047a1.4 1.4 0 0 0-.156-.671.989.989 0 0 0-.469-.422c-.2-.102-.45-.157-.75-.157a2.02 2.02 0 0 0-.797.141 1.583 1.583 0 0 0-.547.375c-.136.148-.23.305-.281.469l-1.016-.266c.133-.394.336-.71.61-.953.27-.238.578-.41.922-.516a3.558 3.558 0 0 1 1.093-.171c.25 0 .516.03.797.093.282.063.54.18.782.344.25.156.453.387.609.688.156.292.234.667.234 1.125v4.312h-1.015v-.89h-.063a1.637 1.637 0 0 1-.36.468 2.036 2.036 0 0 1-.624.406 2.587 2.587 0 0 1-.938.157Zm.172-.922c.395 0 .723-.07.985-.219.269-.156.472-.352.609-.594.133-.25.203-.504.203-.765v-.875c-.043.043-.133.086-.266.125a3.799 3.799 0 0 1-.468.109c-.18.031-.356.059-.532.078-.18.024-.324.04-.437.047-.25.031-.484.09-.703.172a1.255 1.255 0 0 0-.531.328c-.137.148-.204.34-.204.578 0 .219.055.406.172.563.114.148.27.261.469.343.207.075.441.11.703.11ZM235.697 304.5v-8.734h3.015c.665 0 1.22.12 1.657.359.445.242.781.57 1 .984.218.418.328.887.328 1.407 0 .523-.117.996-.344 1.422a2.34 2.34 0 0 1-1 .984c-.437.242-.984.36-1.64.36h-2.22v-.97h2.173c.457 0 .828-.07 1.109-.218a1.38 1.38 0 0 0 .61-.64 2.17 2.17 0 0 0 .202-.938c0-.344-.07-.649-.203-.922a1.329 1.329 0 0 0-.625-.625c-.28-.156-.648-.235-1.093-.235h-1.875v7.766ZM243.166 304.5v-6.469h1.03v6.469Zm.515-7.578a.723.723 0 0 1-.515-.203.652.652 0 0 1-.204-.485c0-.195.067-.359.204-.484a.74.74 0 0 1 1.015 0c.145.125.219.29.219.484a.64.64 0 0 1-.219.485.68.68 0 0 1-.5.203ZM248.61 298.031v.89h-3.39v-.89Zm-2.374-1.593h1.031v6.406c0 .281.055.484.172.61.125.124.32.187.594.187.07 0 .156-.004.25-.016.101-.008.203-.02.297-.031l.172.875a2.21 2.21 0 0 1-.375.062c-.137.02-.266.032-.391.032-.563 0-.996-.141-1.297-.422-.305-.29-.453-.696-.453-1.22ZM252.402 298.031v.89h-3.39v-.89Zm-2.375-1.593h1.031v6.406c0 .281.055.484.172.61.125.124.32.187.594.187.07 0 .156-.004.25-.016.101-.008.203-.02.297-.031l.172.875a2.21 2.21 0 0 1-.375.062c-.137.02-.266.032-.391.032-.563 0-.996-.141-1.297-.422-.305-.29-.453-.696-.453-1.22ZM255.763 304.64c-.449 0-.851-.07-1.203-.202a2.138 2.138 0 0 1-.86-.594 1.96 1.96 0 0 1-.437-.985l1-.187c.082.355.25.621.5.797.258.18.586.265.985.265.445 0 .804-.093 1.078-.28.27-.196.406-.43.406-.704a.73.73 0 0 0-.25-.562c-.156-.145-.39-.254-.703-.329l-1.078-.265c-.594-.133-1.04-.348-1.328-.64-.282-.29-.422-.665-.422-1.126 0-.375.097-.703.297-.984.207-.281.488-.5.843-.656.364-.165.782-.25 1.25-.25.438 0 .817.074 1.141.218.32.137.582.328.781.578.196.25.332.54.407.86l-.954.203a1.373 1.373 0 0 0-.437-.672c-.211-.195-.524-.297-.938-.297-.398 0-.718.09-.968.266-.25.18-.375.402-.375.672 0 .25.086.449.265.593.176.137.446.25.813.344l.984.235c.594.136 1.031.351 1.313.64.28.293.422.664.422 1.11 0 .386-.11.726-.329 1.015-.21.293-.507.524-.89.688a3.25 3.25 0 0 1-1.313.25ZM262.77 304.64c-.388 0-.704-.062-.954-.187a2.103 2.103 0 0 1-.61-.469 4.374 4.374 0 0 1-.359-.484h-.094v1h-1v-8.734h1.032v3.28h.078c.082-.144.195-.3.344-.468.144-.176.343-.328.593-.453.25-.125.567-.187.953-.187.551 0 1.032.136 1.438.406.414.273.738.656.969 1.156.238.5.36 1.094.36 1.781 0 .68-.122 1.274-.36 1.782-.23.5-.555.89-.969 1.171-.406.27-.883.407-1.422.407Zm-.157-.937c.394 0 .726-.101 1-.312.281-.22.488-.508.625-.875.144-.364.219-.782.219-1.25a3.34 3.34 0 0 0-.22-1.235 1.757 1.757 0 0 0-.624-.843c-.274-.208-.606-.313-1-.313-.406 0-.746.102-1.016.297-.273.2-.48.48-.625.844-.136.355-.203.773-.203 1.25 0 .48.067.906.203 1.28.145.368.352.653.625.86.281.2.617.297 1.016.297ZM269.212 304.594c-.437 0-.828-.09-1.171-.266a1.91 1.91 0 0 1-.782-.828c-.187-.363-.28-.82-.28-1.375v-4.094h1.03v4c0 .512.13.914.391 1.203.27.282.633.422 1.094.422.312 0 .586-.066.828-.203.25-.133.445-.332.594-.594.144-.27.218-.593.218-.968v-3.86h1.047v6.469h-1v-1.578h.156c-.199.605-.484 1.039-.859 1.297-.367.25-.789.375-1.266.375ZM273.957 304.5v-6.469h1v1h.062c.113-.332.317-.597.61-.797.3-.195.644-.296 1.03-.296.083 0 .177.007.282.015h.234V299a1.998 1.998 0 0 0-.234-.031 2.551 2.551 0 0 0-.39-.031c-.294 0-.56.062-.798.187-.242.125-.43.305-.562.531-.137.23-.203.5-.203.813v4.031ZM280.771 307.078a3.84 3.84 0 0 1-1.25-.187 2.398 2.398 0 0 1-1.422-1.266l.89-.437c.095.156.208.304.345.453.144.144.332.27.562.375.227.101.52.156.875.156.531 0 .961-.133 1.297-.39.332-.262.5-.657.5-1.188v-1.235h-.078a3.813 3.813 0 0 1-.375.485 1.725 1.725 0 0 1-.594.422c-.25.117-.57.172-.953.172-.523 0-.992-.125-1.406-.375a2.56 2.56 0 0 1-.985-1.094c-.242-.477-.36-1.055-.36-1.735 0-.664.114-1.242.345-1.734.238-.5.566-.883.984-1.156a2.58 2.58 0 0 1 1.438-.406c.394 0 .718.062.968.187s.446.277.594.453c.156.18.274.34.36.485h.078v-1.032h1.015v6.61c0 .562-.125 1.023-.375 1.39-.25.364-.59.63-1.015.797-.43.164-.907.25-1.438.25Zm-.031-3.562c.394 0 .726-.086 1-.266.281-.187.488-.453.625-.797.144-.344.219-.754.219-1.234 0-.457-.075-.864-.22-1.219a1.77 1.77 0 0 0-.624-.828c-.274-.195-.606-.297-1-.297-.399 0-.735.105-1.016.313-.281.199-.496.476-.64.828a3.336 3.336 0 0 0-.204 1.203c0 .469.07.875.22 1.219.144.343.35.609.624.796.281.188.617.282 1.016.282Zm0 0"/><g clip-path="url(#aM)"><g clip-path="url(#aN)"><g clip-path="url(#aO)" transform="translate(418 261)"><g clip-path="url(#aP)"><g clip-path="url(#aQ)"><path fill="#1e1e1e" d="M-629.2-393H753.2v864H-629.2z"/></g></g></g></g></g><path d="M386.934 260.369c-.636 0-1.195-.106-1.672-.313-.468-.218-.835-.515-1.093-.89-.262-.383-.403-.836-.422-1.36h1.125c.02.356.125.649.312.875.188.23.43.403.735.516.312.117.648.172 1.015.172.407 0 .766-.063 1.078-.188.313-.125.555-.3.735-.531.187-.238.281-.516.281-.828a.985.985 0 0 0-.234-.672 1.7 1.7 0 0 0-.61-.437 4.94 4.94 0 0 0-.89-.313l-1.032-.297c-.75-.195-1.324-.476-1.718-.844-.387-.375-.578-.851-.578-1.437 0-.488.129-.914.39-1.281a2.588 2.588 0 0 1 1.063-.875 3.709 3.709 0 0 1 1.547-.313c.582 0 1.093.106 1.53.313.446.21.798.496 1.048.859.258.367.394.777.406 1.234h-1.078a1.392 1.392 0 0 0-.594-1.046c-.355-.25-.805-.375-1.344-.375-.375 0-.71.062-1 .187-.28.125-.5.297-.656.516-.156.21-.234.453-.234.734 0 .281.082.516.25.703.176.18.394.324.656.438.258.105.52.195.781.265l.89.235c.282.074.563.172.845.297.289.117.562.265.812.453.25.18.445.406.594.687.156.274.234.594.234.969 0 .492-.133.93-.39 1.312-.25.375-.61.68-1.079.907-.468.218-1.039.328-1.703.328ZM394.235 253.744v.89h-3.39v-.89Zm-2.375-1.594h1.031v6.406c0 .282.055.485.172.61.125.125.32.187.594.187a6.314 6.314 0 0 0 .547-.047l.172.875a2.21 2.21 0 0 1-.375.063c-.137.02-.266.031-.39.031-.563 0-.997-.14-1.298-.422-.304-.289-.453-.695-.453-1.219ZM397.436 260.353c-.418 0-.793-.074-1.125-.219a1.892 1.892 0 0 1-.797-.671c-.199-.301-.296-.665-.296-1.094 0-.375.07-.676.218-.906a1.62 1.62 0 0 1 .578-.547c.25-.133.52-.235.813-.297.3-.07.61-.125.922-.156l.953-.125c.238-.032.414-.079.531-.141.113-.063.172-.172.172-.328v-.047a1.4 1.4 0 0 0-.156-.672.989.989 0 0 0-.469-.422c-.2-.101-.45-.156-.75-.156a2.02 2.02 0 0 0-.797.14 1.583 1.583 0 0 0-.547.376c-.136.148-.23.304-.28.468l-1.017-.265c.133-.395.336-.711.61-.953.27-.239.578-.41.922-.516a3.558 3.558 0 0 1 1.093-.172c.25 0 .516.031.797.094.282.062.54.18.782.344.25.156.453.386.609.687.156.293.234.668.234 1.125v4.313h-1.015v-.891h-.063a1.637 1.637 0 0 1-.36.469 2.036 2.036 0 0 1-.624.406 2.587 2.587 0 0 1-.938.156Zm.172-.922c.395 0 .723-.07.985-.218.27-.157.472-.352.609-.594.133-.25.203-.504.203-.766v-.875c-.043.043-.133.086-.266.125a3.799 3.799 0 0 1-.468.11c-.18.03-.356.058-.532.078-.18.023-.324.039-.437.047-.25.03-.484.09-.703.171a1.255 1.255 0 0 0-.531.329c-.137.148-.204.34-.204.578 0 .218.055.406.172.562.114.149.27.262.47.344.206.074.44.11.702.11ZM404.823 253.744v.89h-3.39v-.89Zm-2.375-1.594h1.031v6.406c0 .282.055.485.172.61.125.125.32.187.594.187a6.314 6.314 0 0 0 .547-.047l.172.875a2.21 2.21 0 0 1-.375.063c-.137.02-.266.031-.391.031-.562 0-.996-.14-1.297-.422-.305-.289-.453-.695-.453-1.219ZM408.684 260.353c-.625 0-1.168-.14-1.625-.422a2.851 2.851 0 0 1-1.047-1.172c-.242-.5-.359-1.078-.359-1.734 0-.664.117-1.25.36-1.75.25-.508.593-.906 1.03-1.187.438-.29.946-.438 1.532-.438.363 0 .71.063 1.047.188.344.125.648.32.922.578.27.261.484.601.64 1.015.157.418.235.914.235 1.485v.406h-5.078v-.89h4.515l-.484.327c0-.425-.07-.8-.203-1.125a1.725 1.725 0 0 0-.61-.78c-.273-.188-.601-.282-.984-.282-.387 0-.719.094-1 .281a1.786 1.786 0 0 0-.64.75 2.338 2.338 0 0 0-.22 1.016v.562c0 .469.079.875.235 1.219.164.336.395.59.687.766.301.168.649.25 1.047.25.27 0 .508-.036.72-.11.218-.082.398-.195.546-.343.156-.157.27-.344.344-.563l1.015.219a2.066 2.066 0 0 1-.515.906 2.442 2.442 0 0 1-.907.61 3.174 3.174 0 0 1-1.203.218ZM419.84 260.338c-.75 0-1.421-.18-2.015-.547a3.81 3.81 0 0 1-1.39-1.563c-.337-.676-.5-1.469-.5-2.375 0-.914.163-1.707.5-2.375.331-.676.796-1.195 1.39-1.562.594-.375 1.266-.563 2.016-.563.445 0 .867.07 1.265.203.395.125.75.313 1.063.563.312.25.57.558.781.922.207.355.352.757.437 1.203h-1.109a2.202 2.202 0 0 0-.328-.797 2.142 2.142 0 0 0-.547-.578 2.182 2.182 0 0 0-.734-.36 2.76 2.76 0 0 0-.828-.125 2.66 2.66 0 0 0-1.454.407c-.43.273-.765.668-1.015 1.187-.242.512-.36 1.137-.36 1.875 0 .73.118 1.356.36 1.875.25.512.586.906 1.015 1.188.438.273.922.406 1.454.406.289 0 .566-.04.828-.125a2.52 2.52 0 0 0 .734-.36c.219-.164.399-.363.547-.593.156-.227.266-.492.328-.797h1.11c-.075.45-.22.851-.438 1.203a3.3 3.3 0 0 1-.781.906c-.313.25-.668.446-1.063.578-.398.133-.82.204-1.265.204ZM427.536 260.353c-.594 0-1.117-.14-1.563-.422a2.9 2.9 0 0 1-1.03-1.172c-.25-.5-.376-1.082-.376-1.75 0-.664.125-1.25.375-1.75.25-.507.594-.906 1.031-1.187.446-.281.97-.422 1.563-.422.582 0 1.098.14 1.547.422.445.281.797.68 1.047 1.187.25.5.375 1.086.375 1.75 0 .668-.125 1.25-.375 1.75s-.602.891-1.047 1.172c-.45.282-.965.422-1.547.422Zm0-.937c.426 0 .781-.11 1.062-.328.282-.22.489-.508.625-.875.145-.364.22-.766.22-1.204 0-.437-.075-.836-.22-1.203a1.934 1.934 0 0 0-.625-.89c-.28-.22-.636-.328-1.062-.328-.43 0-.781.109-1.063.328a2.039 2.039 0 0 0-.64.875 3.47 3.47 0 0 0-.203 1.218c0 .438.066.84.203 1.204.144.367.36.656.64.875.282.218.633.328 1.063.328ZM432.987 251.478v8.735h-1.031v-8.735ZM435.8 251.478v8.735h-1.032v-8.735ZM440.284 260.353c-.625 0-1.168-.14-1.625-.422a2.851 2.851 0 0 1-1.047-1.172c-.242-.5-.36-1.078-.36-1.734 0-.664.118-1.25.36-1.75.25-.508.594-.906 1.031-1.187.438-.29.946-.438 1.532-.438.363 0 .71.063 1.046.188.344.125.649.32.922.578.27.261.485.601.641 1.015.156.418.234.914.234 1.485v.406h-5.078v-.89h4.516l-.485.327c0-.425-.07-.8-.203-1.125a1.725 1.725 0 0 0-.609-.78c-.273-.188-.602-.282-.984-.282-.387 0-.72.094-1 .281a1.786 1.786 0 0 0-.641.75 2.338 2.338 0 0 0-.219 1.016v.562c0 .469.078.875.235 1.219.164.336.394.59.687.766.3.168.649.25 1.047.25.27 0 .508-.036.719-.11.218-.082.398-.195.547-.343.156-.157.27-.344.343-.563l1.016.219a2.066 2.066 0 0 1-.516.906 2.442 2.442 0 0 1-.906.61 3.174 3.174 0 0 1-1.203.218ZM447.079 262.79a3.84 3.84 0 0 1-1.25-.187 2.398 2.398 0 0 1-1.422-1.266l.89-.437c.094.156.208.305.344.453.145.145.332.27.563.375.226.102.52.156.875.156.531 0 .96-.132 1.297-.39.332-.262.5-.656.5-1.188v-1.234h-.078a3.813 3.813 0 0 1-.375.484 1.725 1.725 0 0 1-.594.422c-.25.117-.57.172-.953.172-.524 0-.992-.125-1.406-.375a2.56 2.56 0 0 1-.985-1.094c-.242-.476-.36-1.054-.36-1.734 0-.664.114-1.242.345-1.734.238-.5.566-.883.984-1.157a2.58 2.58 0 0 1 1.437-.406c.395 0 .72.063.97.188s.444.277.593.453c.156.18.273.34.36.484h.077v-1.031h1.016v6.61c0 .562-.125 1.023-.375 1.39-.25.363-.59.629-1.016.797-.43.164-.906.25-1.437.25Zm-.031-3.562c.394 0 .726-.086 1-.265.28-.188.488-.454.625-.797.144-.344.218-.754.218-1.235 0-.457-.074-.863-.218-1.218a1.77 1.77 0 0 0-.625-.829c-.274-.195-.606-.296-1-.296-.399 0-.735.105-1.016.312-.281.2-.496.477-.64.828a3.336 3.336 0 0 0-.204 1.203c0 .469.07.875.219 1.219.145.344.352.61.625.797.281.187.617.281 1.016.281ZM454.387 260.353c-.625 0-1.167-.14-1.625-.422a2.851 2.851 0 0 1-1.046-1.172c-.243-.5-.36-1.078-.36-1.734 0-.664.117-1.25.36-1.75.25-.508.593-.906 1.03-1.187.438-.29.946-.438 1.532-.438.363 0 .711.063 1.047.188.344.125.648.32.922.578.27.261.484.601.64 1.015.157.418.235.914.235 1.485v.406h-5.078v-.89h4.515l-.484.327c0-.425-.07-.8-.203-1.125a1.725 1.725 0 0 0-.61-.78c-.273-.188-.601-.282-.984-.282-.387 0-.719.094-1 .281a1.786 1.786 0 0 0-.64.75 2.338 2.338 0 0 0-.22 1.016v.562c0 .469.079.875.235 1.219.164.336.395.59.688.766.3.168.648.25 1.046.25.27 0 .508-.036.72-.11.218-.082.398-.195.546-.343.156-.157.27-.344.344-.563l1.015.219a2.066 2.066 0 0 1-.515.906 2.442 2.442 0 0 1-.906.61 3.174 3.174 0 0 1-1.204.218Zm0 0"/><g clip-path="url(#aR)"><g clip-path="url(#aS)"><g clip-path="url(#aT)" transform="translate(630 513)"><g clip-path="url(#aU)"><g clip-path="url(#aV)"><path fill="#1e1e1e" d="M-841.2-645H541.2v864H-841.2z"/></g></g></g></g></g><g clip-path="url(#aW)"><g clip-path="url(#aX)"><g clip-path="url(#aY)" transform="translate(633 513)"><g clip-path="url(#aZ)"><g clip-path="url(#ba)"><path fill="#1e1e1e" d="M-844.2-645H538.2v864H-844.2z"/></g></g></g></g></g><g clip-path="url(#bb)"><g clip-path="url(#bc)"><g clip-path="url(#bd)" transform="translate(633 510)"><g clip-path="url(#be)"><g clip-path="url(#bf)"><path fill="#1e1e1e" d="M-844.2-642H538.2v864H-844.2z"/></g></g></g></g></g><g clip-path="url(#bg)"><g clip-path="url(#bh)"><g clip-path="url(#bi)" transform="translate(620 511)"><g clip-path="url(#bj)"><g clip-path="url(#bk)"><path fill="#1e1e1e" d="M-831.2-643H551.2v864H-831.2z"/></g></g></g></g></g><g clip-path="url(#bl)"><g clip-path="url(#bm)"><g clip-path="url(#bn)" transform="translate(495 361)"><g clip-path="url(#bo)"><g clip-path="url(#bp)"><path fill="#1e1e1e" d="M-706.2-493H676.2v864H-706.2z"/></g></g></g></g></g><path d="M473.281 369.334c-.48 0-.898-.078-1.25-.234a1.92 1.92 0 0 1-.828-.656c-.2-.29-.308-.63-.328-1.016h.844c.02.262.097.48.234.656.145.168.332.297.563.391.226.086.484.125.765.125.301 0 .567-.047.797-.14.238-.102.426-.239.563-.407a.987.987 0 0 0 .203-.61.782.782 0 0 0-.172-.515 1.164 1.164 0 0 0-.453-.328 3.654 3.654 0 0 0-.672-.234l-.781-.22c-.555-.155-.98-.366-1.282-.64-.293-.281-.437-.64-.437-1.078 0-.363.098-.68.297-.953.195-.281.46-.5.797-.656a2.755 2.755 0 0 1 1.156-.235c.437 0 .82.079 1.156.235.332.156.594.37.781.64.196.274.301.586.313.938h-.813a1.038 1.038 0 0 0-.453-.797c-.273-.187-.605-.281-1-.281-.281 0-.531.047-.75.14-.21.094-.375.227-.5.391a.886.886 0 0 0-.172.547c0 .21.063.387.188.531.133.137.297.246.484.328.196.074.395.137.594.188l.672.187c.207.055.414.125.625.219.219.086.422.2.61.344.187.136.335.308.452.515.114.2.172.446.172.735 0 .355-.094.68-.281.969a1.863 1.863 0 0 1-.828.687c-.356.156-.777.234-1.266.234ZM478.815 369.334c-.468 0-.875-.105-1.218-.312a2.22 2.22 0 0 1-.782-.89c-.18-.376-.265-.805-.265-1.298 0-.5.086-.937.265-1.312a2.17 2.17 0 0 1 .766-.89 2.056 2.056 0 0 1 1.156-.329c.282 0 .547.047.797.14.25.095.473.243.672.438.207.2.367.453.484.766.125.305.188.672.188 1.11v.296h-3.813v-.656h3.375l-.343.234c0-.32-.055-.601-.157-.843a1.257 1.257 0 0 0-.468-.579 1.22 1.22 0 0 0-.735-.218c-.293 0-.543.074-.75.218-.21.137-.37.325-.484.563-.106.23-.156.484-.156.766v.406c0 .355.054.664.172.922.125.25.296.445.515.578.227.125.492.187.797.187.195 0 .375-.023.531-.078a1.161 1.161 0 0 0 .672-.688l.766.157a1.612 1.612 0 0 1-.39.687c-.18.2-.403.356-.673.47a2.621 2.621 0 0 1-.922.155ZM483.17 369.225l-1.844-4.86h.843l1.047 2.876c.102.28.192.562.266.843.07.282.148.559.234.829h-.265c.082-.27.16-.547.234-.829.082-.28.176-.562.281-.843l1.032-2.875h.843l-1.843 4.859ZM488.576 369.334c-.47 0-.875-.105-1.22-.312a2.22 2.22 0 0 1-.78-.89c-.18-.376-.266-.805-.266-1.298 0-.5.086-.937.266-1.312a2.17 2.17 0 0 1 .765-.89 2.056 2.056 0 0 1 1.157-.329c.28 0 .546.047.796.14.25.095.473.243.672.438.207.2.367.453.485.766.125.305.187.672.187 1.11v.296h-3.812v-.656h3.375l-.344.234c0-.32-.055-.601-.156-.843a1.257 1.257 0 0 0-.47-.579 1.22 1.22 0 0 0-.733-.218c-.293 0-.543.074-.75.218-.211.137-.372.325-.485.563-.105.23-.156.484-.156.766v.406c0 .355.055.664.172.922.125.25.297.445.515.578.227.125.493.187.797.187.196 0 .375-.023.532-.078a1.161 1.161 0 0 0 .672-.688l.765.157a1.612 1.612 0 0 1-.39.687c-.18.2-.403.356-.672.47a2.621 2.621 0 0 1-.922.155ZM492.496 366.334v2.891h-.797v-4.86h.766v1.188h-.14c.155-.445.366-.765.64-.953.281-.195.601-.297.969-.297.332 0 .625.07.875.203.25.137.441.344.578.625.144.274.218.617.218 1.032v3.062h-.78v-3c0-.383-.102-.68-.298-.89-.199-.22-.465-.329-.797-.329-.242 0-.453.055-.64.157a.987.987 0 0 0-.438.437c-.105.2-.156.445-.156.734ZM501.363 369.225l-2.406-6.547h.86l1.39 3.89c.082.22.18.516.297.891.125.368.265.825.422 1.375h-.172c.164-.55.305-1.007.422-1.375.113-.375.207-.671.281-.89l1.36-3.89h.874l-2.375 6.546ZM506.452 369.334c-.312 0-.594-.058-.844-.171a1.38 1.38 0 0 1-.593-.5c-.149-.227-.22-.504-.22-.829 0-.27.052-.492.157-.671.113-.176.258-.313.438-.407.187-.101.39-.176.609-.218.227-.051.457-.094.687-.125.29-.04.524-.07.704-.094.187-.02.32-.051.406-.094.094-.05.14-.14.14-.266v-.03a.959.959 0 0 0-.125-.5.72.72 0 0 0-.343-.329 1.362 1.362 0 0 0-.563-.11c-.23 0-.43.04-.594.11a1.174 1.174 0 0 0-.406.281.98.98 0 0 0-.219.36l-.765-.203c.101-.29.254-.524.453-.704.207-.187.441-.32.703-.406.258-.082.531-.125.813-.125.187 0 .382.027.593.078.207.043.407.125.594.25.188.117.336.29.453.516.114.219.172.5.172.844v3.234h-.766v-.672h-.046c-.055.117-.141.235-.266.36a1.443 1.443 0 0 1-.469.296 1.756 1.756 0 0 1-.703.125Zm.125-.703c.3 0 .55-.05.75-.156a1.22 1.22 0 0 0 .453-.437c.102-.188.156-.38.156-.579v-.671a.54.54 0 0 1-.218.109c-.094.023-.211.047-.344.078-.137.023-.273.043-.406.063l-.313.03a2.295 2.295 0 0 0-.531.126.91.91 0 0 0-.406.25c-.094.105-.14.25-.14.437 0 .168.038.309.124.422.094.106.211.188.36.25.144.055.316.078.515.078ZM510.824 362.678v6.547h-.797v-6.547ZM512.934 362.678v6.547h-.797v-6.547ZM516.277 369.334c-.468 0-.875-.105-1.218-.312a2.22 2.22 0 0 1-.782-.89c-.18-.376-.265-.805-.265-1.298 0-.5.086-.937.265-1.312a2.17 2.17 0 0 1 .766-.89 2.056 2.056 0 0 1 1.156-.329c.281 0 .547.047.797.14.25.095.473.243.672.438.207.2.367.453.484.766.125.305.188.672.188 1.11v.296h-3.813v-.656h3.375l-.343.234c0-.32-.055-.601-.157-.843a1.257 1.257 0 0 0-.468-.579 1.22 1.22 0 0 0-.735-.218c-.293 0-.543.074-.75.218-.21.137-.37.325-.484.563-.106.23-.156.484-.156.766v.406c0 .355.054.664.171.922.125.25.297.445.516.578.227.125.492.187.797.187.195 0 .375-.023.531-.078a1.161 1.161 0 0 0 .672-.688l.766.157a1.612 1.612 0 0 1-.39.687c-.18.2-.403.356-.673.47a2.621 2.621 0 0 1-.922.155ZM519.178 371.022l.156-.688.172.016c.145.031.274.035.39.016a.587.587 0 0 0 .33-.188c.093-.105.175-.265.25-.484l.17-.453-1.858-4.875h.843l1.047 2.875c.102.28.192.562.266.843.07.282.148.559.234.829h-.265c.082-.27.16-.547.234-.829.082-.28.176-.562.281-.843l1.031-2.875h.844l-2.14 5.625c-.094.25-.211.453-.344.609a1.203 1.203 0 0 1-.485.36c-.18.081-.382.124-.609.124-.125 0-.234-.011-.328-.03l-.219-.032ZM525.836 369.334c-.343 0-.648-.054-.906-.156a1.665 1.665 0 0 1-.656-.453 1.494 1.494 0 0 1-.328-.734l.75-.141c.062.273.187.477.375.61.195.124.445.187.75.187.332 0 .597-.07.797-.219.207-.144.312-.316.312-.515a.558.558 0 0 0-.187-.422c-.125-.114-.305-.196-.532-.25l-.796-.188c-.45-.101-.782-.265-1-.484a1.167 1.167 0 0 1-.329-.844c0-.281.079-.523.235-.734.156-.22.367-.383.64-.5.27-.125.579-.188.922-.188.332 0 .617.055.86.156.238.106.43.25.578.438.144.187.25.406.312.656l-.718.14a1.076 1.076 0 0 0-.329-.5c-.156-.155-.39-.234-.703-.234-.293 0-.531.07-.718.204-.188.136-.282.308-.282.515 0 .18.063.324.188.438.133.105.336.187.61.25l.75.187c.444.106.773.266.984.485.207.218.312.496.312.828 0 .293-.086.547-.25.765-.156.219-.375.39-.656.516-.281.125-.61.187-.985.187Zm0 0"/></svg>